<mxfile host="65bd71144e">
    <diagram name="基本アーキテクチャ図(2)" id="kNQ7hPWD0Lw1mM555jFB">
        <mxGraphModel dx="1910" dy="1524" grid="1" gridSize="10" guides="1" tooltips="1" connect="1" arrows="1" fold="1" page="0" pageScale="1" pageWidth="827" pageHeight="1169" math="0" shadow="0">
            <root>
                <mxCell id="fxQP5-2Rpk5uUzQ9qzvW-0"/>
                <mxCell id="0" value="枠組み" style="" parent="fxQP5-2Rpk5uUzQ9qzvW-0"/>
                <mxCell id="2062" value="" style="group" vertex="1" connectable="0" parent="0">
                    <mxGeometry x="-236" y="80" width="1086" height="650" as="geometry"/>
                </mxCell>
                <mxCell id="2063" value="" style="rounded=0;whiteSpace=wrap;html=1;labelBackgroundColor=none;fontSize=11;fillColor=none;dashed=1;container=0;strokeColor=#FF99CC;" vertex="1" parent="2062">
                    <mxGeometry y="3" width="1086" height="647" as="geometry"/>
                </mxCell>
                <mxCell id="2064" value="&lt;font style=&quot;font-size: 11px;&quot;&gt;a)-1 ：親要素新規作成&lt;/font&gt;" style="text;strokeColor=none;align=left;fillColor=none;html=1;verticalAlign=middle;whiteSpace=wrap;rounded=0;labelBackgroundColor=none;fontSize=10;" vertex="1" parent="2062">
                    <mxGeometry width="276" height="20" as="geometry"/>
                </mxCell>
                <mxCell id="2109" value="" style="text;strokeColor=default;align=center;fillColor=none;html=1;verticalAlign=middle;whiteSpace=wrap;rounded=0;labelBackgroundColor=none;fontSize=10;dashed=1;strokeWidth=2;perimeterSpacing=0;dashPattern=1 1;glass=1;container=0;" vertex="1" parent="2062">
                    <mxGeometry x="506" y="140" width="574" height="370" as="geometry"/>
                </mxCell>
                <mxCell id="2066" value="" style="group" vertex="1" connectable="0" parent="0">
                    <mxGeometry x="480" y="171" width="280" height="580" as="geometry"/>
                </mxCell>
                <mxCell id="2067" value="&lt;div style=&quot;&quot;&gt;&lt;br&gt;&lt;/div&gt;" style="rounded=0;whiteSpace=wrap;html=1;labelBackgroundColor=none;strokeColor=#009900;fontSize=11;fontColor=#FFFFFF;fillColor=none;dashed=1;strokeWidth=3;align=right;labelPosition=left;verticalLabelPosition=top;verticalAlign=bottom;" vertex="1" parent="2066">
                    <mxGeometry x="1.08" y="1" width="238.92" height="389" as="geometry"/>
                </mxCell>
                <mxCell id="2068" value="M" style="text;strokeColor=#005700;align=center;fillColor=#008a00;html=1;verticalAlign=middle;whiteSpace=wrap;rounded=0;labelBackgroundColor=none;fontSize=20;fontColor=#ffffff;" vertex="1" parent="2066">
                    <mxGeometry width="21.576763485477176" height="20" as="geometry"/>
                </mxCell>
                <mxCell id="2069" value="" style="group" vertex="1" connectable="0" parent="0">
                    <mxGeometry x="-80" y="580" width="250" height="171" as="geometry"/>
                </mxCell>
                <mxCell id="2070" value="&lt;div style=&quot;&quot;&gt;&lt;br&gt;&lt;/div&gt;" style="rounded=0;whiteSpace=wrap;html=1;labelBackgroundColor=none;strokeColor=#009900;fontSize=11;fontColor=#FFFFFF;fillColor=none;dashed=1;strokeWidth=3;align=right;labelPosition=left;verticalLabelPosition=top;verticalAlign=bottom;" vertex="1" parent="2069">
                    <mxGeometry x="1" y="1" width="249" height="79" as="geometry"/>
                </mxCell>
                <mxCell id="2071" value="V" style="text;strokeColor=#005700;align=center;fillColor=#008a00;html=1;verticalAlign=middle;whiteSpace=wrap;rounded=0;labelBackgroundColor=none;fontSize=20;fontColor=#ffffff;" vertex="1" parent="2069">
                    <mxGeometry width="20" height="20" as="geometry"/>
                </mxCell>
                <mxCell id="2072" value="" style="group" vertex="1" connectable="0" parent="0">
                    <mxGeometry x="-70" y="120" width="250" height="360" as="geometry"/>
                </mxCell>
                <mxCell id="2073" value="&lt;div style=&quot;&quot;&gt;&lt;br&gt;&lt;/div&gt;" style="rounded=0;whiteSpace=wrap;html=1;labelBackgroundColor=none;strokeColor=#009900;fontSize=11;fontColor=#FFFFFF;fillColor=none;dashed=1;strokeWidth=3;align=right;labelPosition=left;verticalLabelPosition=top;verticalAlign=bottom;" vertex="1" parent="2072">
                    <mxGeometry x="1" y="1" width="209" height="329" as="geometry"/>
                </mxCell>
                <mxCell id="2074" value="C" style="text;strokeColor=#005700;align=center;fillColor=#008a00;html=1;verticalAlign=middle;whiteSpace=wrap;rounded=0;labelBackgroundColor=none;fontSize=20;fontColor=#ffffff;" vertex="1" parent="2072">
                    <mxGeometry width="20" height="20" as="geometry"/>
                </mxCell>
                <mxCell id="2110" value="トランザクション" style="text;strokeColor=none;align=center;fillColor=none;html=1;verticalAlign=middle;whiteSpace=wrap;rounded=0;labelBackgroundColor=none;fontSize=10;" vertex="1" parent="0">
                    <mxGeometry x="269" y="221" width="90" height="15" as="geometry"/>
                </mxCell>
                <mxCell id="2200" value="" style="group" vertex="1" connectable="0" parent="0">
                    <mxGeometry x="-236" y="760" width="1086" height="650" as="geometry"/>
                </mxCell>
                <mxCell id="2201" value="" style="rounded=0;whiteSpace=wrap;html=1;labelBackgroundColor=none;fontSize=11;fillColor=none;dashed=1;container=0;strokeColor=#FF99CC;" vertex="1" parent="2200">
                    <mxGeometry y="3" width="1086" height="647" as="geometry"/>
                </mxCell>
                <mxCell id="2202" value="&lt;font style=&quot;font-size: 11px;&quot;&gt;a)-2 ：子要素新規作成&lt;/font&gt;" style="text;strokeColor=none;align=left;fillColor=none;html=1;verticalAlign=middle;whiteSpace=wrap;rounded=0;labelBackgroundColor=none;fontSize=10;" vertex="1" parent="2200">
                    <mxGeometry width="276" height="20" as="geometry"/>
                </mxCell>
                <mxCell id="2203" value="" style="text;strokeColor=default;align=center;fillColor=none;html=1;verticalAlign=middle;whiteSpace=wrap;rounded=0;labelBackgroundColor=none;fontSize=10;dashed=1;strokeWidth=2;perimeterSpacing=0;dashPattern=1 1;glass=1;container=0;" vertex="1" parent="2200">
                    <mxGeometry x="506" y="140" width="574" height="210" as="geometry"/>
                </mxCell>
                <mxCell id="2204" value="" style="group" vertex="1" connectable="0" parent="0">
                    <mxGeometry x="430" y="851" width="280" height="580" as="geometry"/>
                </mxCell>
                <mxCell id="2205" value="&lt;div style=&quot;&quot;&gt;&lt;br&gt;&lt;/div&gt;" style="rounded=0;whiteSpace=wrap;html=1;labelBackgroundColor=none;strokeColor=#009900;fontSize=11;fontColor=#FFFFFF;fillColor=none;dashed=1;strokeWidth=3;align=right;labelPosition=left;verticalLabelPosition=top;verticalAlign=bottom;" vertex="1" parent="2204">
                    <mxGeometry x="1.08" y="1" width="278.92" height="269" as="geometry"/>
                </mxCell>
                <mxCell id="2206" value="M" style="text;strokeColor=#005700;align=center;fillColor=#008a00;html=1;verticalAlign=middle;whiteSpace=wrap;rounded=0;labelBackgroundColor=none;fontSize=20;fontColor=#ffffff;" vertex="1" parent="2204">
                    <mxGeometry width="21.576763485477176" height="20" as="geometry"/>
                </mxCell>
                <mxCell id="2207" value="&lt;div style=&quot;&quot;&gt;&lt;br&gt;&lt;/div&gt;" style="rounded=0;whiteSpace=wrap;html=1;labelBackgroundColor=none;strokeColor=#009900;fontSize=11;fontColor=#FFFFFF;fillColor=none;dashed=1;strokeWidth=3;align=right;labelPosition=left;verticalLabelPosition=top;verticalAlign=bottom;" vertex="1" parent="0">
                    <mxGeometry x="-79" y="1261" width="249" height="79" as="geometry"/>
                </mxCell>
                <mxCell id="2208" value="&lt;div style=&quot;&quot;&gt;&lt;br&gt;&lt;/div&gt;" style="rounded=0;whiteSpace=wrap;html=1;labelBackgroundColor=none;strokeColor=#009900;fontSize=11;fontColor=#FFFFFF;fillColor=none;dashed=1;strokeWidth=3;align=right;labelPosition=left;verticalLabelPosition=top;verticalAlign=bottom;" vertex="1" parent="0">
                    <mxGeometry x="-69" y="801" width="209" height="329" as="geometry"/>
                </mxCell>
                <mxCell id="2209" value="トランザクション" style="text;strokeColor=none;align=center;fillColor=none;html=1;verticalAlign=middle;whiteSpace=wrap;rounded=0;labelBackgroundColor=none;fontSize=10;" vertex="1" parent="0">
                    <mxGeometry x="269" y="901" width="90" height="15" as="geometry"/>
                </mxCell>
                <mxCell id="2210" value="" style="group" vertex="1" connectable="0" parent="0">
                    <mxGeometry x="-80" y="1260" width="250" height="171" as="geometry"/>
                </mxCell>
                <mxCell id="2211" value="V" style="text;strokeColor=#005700;align=center;fillColor=#008a00;html=1;verticalAlign=middle;whiteSpace=wrap;rounded=0;labelBackgroundColor=none;fontSize=20;fontColor=#ffffff;" vertex="1" parent="2210">
                    <mxGeometry width="20" height="20" as="geometry"/>
                </mxCell>
                <mxCell id="2212" value="" style="group" vertex="1" connectable="0" parent="0">
                    <mxGeometry x="-70" y="800" width="250" height="360" as="geometry"/>
                </mxCell>
                <mxCell id="2213" value="C" style="text;strokeColor=#005700;align=center;fillColor=#008a00;html=1;verticalAlign=middle;whiteSpace=wrap;rounded=0;labelBackgroundColor=none;fontSize=20;fontColor=#ffffff;" vertex="1" parent="2212">
                    <mxGeometry width="20" height="20" as="geometry"/>
                </mxCell>
                <mxCell id="2345" value="" style="group" vertex="1" connectable="0" parent="0">
                    <mxGeometry x="-236" y="1440" width="1086" height="650" as="geometry"/>
                </mxCell>
                <mxCell id="2346" value="" style="rounded=0;whiteSpace=wrap;html=1;labelBackgroundColor=none;fontSize=11;fillColor=none;dashed=1;container=0;strokeColor=#FF99CC;" vertex="1" parent="2345">
                    <mxGeometry y="3" width="1086" height="647" as="geometry"/>
                </mxCell>
                <mxCell id="2347" value="&lt;font style=&quot;font-size: 11px;&quot;&gt;b)-1 ：親要素内容変更&lt;/font&gt;" style="text;strokeColor=none;align=left;fillColor=none;html=1;verticalAlign=middle;whiteSpace=wrap;rounded=0;labelBackgroundColor=none;fontSize=10;" vertex="1" parent="2345">
                    <mxGeometry width="276" height="20" as="geometry"/>
                </mxCell>
                <mxCell id="2348" value="" style="text;strokeColor=default;align=center;fillColor=none;html=1;verticalAlign=middle;whiteSpace=wrap;rounded=0;labelBackgroundColor=none;fontSize=10;dashed=1;strokeWidth=2;perimeterSpacing=0;dashPattern=1 1;glass=1;container=0;" vertex="1" parent="2345">
                    <mxGeometry x="506" y="140" width="574" height="370" as="geometry"/>
                </mxCell>
                <mxCell id="2349" value="&lt;div style=&quot;&quot;&gt;&lt;br&gt;&lt;/div&gt;" style="rounded=0;whiteSpace=wrap;html=1;labelBackgroundColor=none;strokeColor=#009900;fontSize=11;fontColor=#FFFFFF;fillColor=none;dashed=1;strokeWidth=3;align=right;labelPosition=left;verticalLabelPosition=top;verticalAlign=bottom;" vertex="1" parent="0">
                    <mxGeometry x="481.08" y="1532" width="238.92" height="389" as="geometry"/>
                </mxCell>
                <mxCell id="2350" value="M" style="text;strokeColor=#005700;align=center;fillColor=#008a00;html=1;verticalAlign=middle;whiteSpace=wrap;rounded=0;labelBackgroundColor=none;fontSize=20;fontColor=#ffffff;" vertex="1" parent="0">
                    <mxGeometry x="480" y="1531" width="21.576763485477176" height="20" as="geometry"/>
                </mxCell>
                <mxCell id="2351" value="&lt;div style=&quot;&quot;&gt;&lt;br&gt;&lt;/div&gt;" style="rounded=0;whiteSpace=wrap;html=1;labelBackgroundColor=none;strokeColor=#009900;fontSize=11;fontColor=#FFFFFF;fillColor=none;dashed=1;strokeWidth=3;align=right;labelPosition=left;verticalLabelPosition=top;verticalAlign=bottom;" vertex="1" parent="0">
                    <mxGeometry x="-79" y="1941" width="249" height="79" as="geometry"/>
                </mxCell>
                <mxCell id="2352" value="V" style="text;strokeColor=#005700;align=center;fillColor=#008a00;html=1;verticalAlign=middle;whiteSpace=wrap;rounded=0;labelBackgroundColor=none;fontSize=20;fontColor=#ffffff;" vertex="1" parent="0">
                    <mxGeometry x="-80" y="1940" width="20" height="20" as="geometry"/>
                </mxCell>
                <mxCell id="2353" value="&lt;div style=&quot;&quot;&gt;&lt;br&gt;&lt;/div&gt;" style="rounded=0;whiteSpace=wrap;html=1;labelBackgroundColor=none;strokeColor=#009900;fontSize=11;fontColor=#FFFFFF;fillColor=none;dashed=1;strokeWidth=3;align=right;labelPosition=left;verticalLabelPosition=top;verticalAlign=bottom;" vertex="1" parent="0">
                    <mxGeometry x="-69" y="1481" width="209" height="329" as="geometry"/>
                </mxCell>
                <mxCell id="2354" value="C" style="text;strokeColor=#005700;align=center;fillColor=#008a00;html=1;verticalAlign=middle;whiteSpace=wrap;rounded=0;labelBackgroundColor=none;fontSize=20;fontColor=#ffffff;" vertex="1" parent="0">
                    <mxGeometry x="-70" y="1480" width="20" height="20" as="geometry"/>
                </mxCell>
                <mxCell id="2355" value="トランザクション" style="text;strokeColor=none;align=center;fillColor=none;html=1;verticalAlign=middle;whiteSpace=wrap;rounded=0;labelBackgroundColor=none;fontSize=10;" vertex="1" parent="0">
                    <mxGeometry x="269" y="1581" width="90" height="15" as="geometry"/>
                </mxCell>
                <mxCell id="fxQP5-2Rpk5uUzQ9qzvW-1" style="" parent="fxQP5-2Rpk5uUzQ9qzvW-0"/>
                <mxCell id="n8tdfDY55hou1CKn_ImN-23" value="④ロードマップ管理機能(変更)" style="rounded=1;whiteSpace=wrap;html=1;labelBackgroundColor=none;strokeColor=default;fontSize=11;fontColor=#FFFFFF;fillColor=#808080;" parent="fxQP5-2Rpk5uUzQ9qzvW-1" vertex="1">
                    <mxGeometry x="-260" y="20" width="160" height="40" as="geometry"/>
                </mxCell>
                <mxCell id="fxQP5-2Rpk5uUzQ9qzvW-98" value="" style="group" parent="fxQP5-2Rpk5uUzQ9qzvW-1" vertex="1" connectable="0">
                    <mxGeometry x="-260" y="-350" width="473.5" height="330" as="geometry"/>
                </mxCell>
                <mxCell id="fxQP5-2Rpk5uUzQ9qzvW-99" value="" style="rounded=1;whiteSpace=wrap;html=1;labelBackgroundColor=none;fillStyle=auto;strokeColor=#F0F0F0;fontFamily=Helvetica;fontSize=10;fontColor=#FFFFFF;fillColor=#808080;container=0;" parent="fxQP5-2Rpk5uUzQ9qzvW-98" vertex="1">
                    <mxGeometry width="460" height="330" as="geometry"/>
                </mxCell>
                <mxCell id="fxQP5-2Rpk5uUzQ9qzvW-100" value="" style="rounded=0;whiteSpace=wrap;html=1;labelBackgroundColor=none;strokeColor=#FF99CC;fontSize=11;fontColor=#FFFFFF;fillColor=none;dashed=1;container=0;" parent="fxQP5-2Rpk5uUzQ9qzvW-98" vertex="1">
                    <mxGeometry x="262" y="140" width="30" height="17" as="geometry"/>
                </mxCell>
                <mxCell id="fxQP5-2Rpk5uUzQ9qzvW-101" value="M or V or C" style="rounded=0;whiteSpace=wrap;html=1;labelBackgroundColor=none;strokeColor=#009900;fontSize=11;fontColor=#FFFFFF;fillColor=none;dashed=1;strokeWidth=2;container=0;" parent="fxQP5-2Rpk5uUzQ9qzvW-98" vertex="1">
                    <mxGeometry x="231" y="168" width="62.5" height="19" as="geometry"/>
                </mxCell>
                <mxCell id="fxQP5-2Rpk5uUzQ9qzvW-102" value="&lt;font color=&quot;#ffffff&quot;&gt;OOOServlet&lt;/font&gt;" style="rounded=0;whiteSpace=wrap;html=1;labelBackgroundColor=none;fillStyle=auto;strokeColor=#F0F0F0;fontFamily=Helvetica;fontSize=10;fontColor=#007FFF;fillColor=#0066CC;container=0;" parent="fxQP5-2Rpk5uUzQ9qzvW-98" vertex="1">
                    <mxGeometry x="10" y="87.5" width="70" height="15" as="geometry"/>
                </mxCell>
                <mxCell id="fxQP5-2Rpk5uUzQ9qzvW-103" value="：サーブレットクラス" style="text;strokeColor=none;align=left;fillColor=none;html=1;verticalAlign=middle;whiteSpace=wrap;rounded=0;labelBackgroundColor=none;container=0;" parent="fxQP5-2Rpk5uUzQ9qzvW-98" vertex="1">
                    <mxGeometry x="81" y="82" width="129" height="30" as="geometry"/>
                </mxCell>
                <mxCell id="fxQP5-2Rpk5uUzQ9qzvW-104" value="&lt;font color=&quot;#ffffff&quot;&gt;OOO.jsp&lt;/font&gt;" style="rounded=0;whiteSpace=wrap;html=1;labelBackgroundColor=none;fillStyle=auto;strokeColor=#F0F0F0;fontFamily=Helvetica;fontSize=10;fontColor=#007FFF;fillColor=#4D9900;container=0;" parent="fxQP5-2Rpk5uUzQ9qzvW-98" vertex="1">
                    <mxGeometry x="10" y="122.5" width="70" height="15" as="geometry"/>
                </mxCell>
                <mxCell id="fxQP5-2Rpk5uUzQ9qzvW-105" value="：JSPファイル" style="text;strokeColor=none;align=left;fillColor=none;html=1;verticalAlign=middle;whiteSpace=wrap;rounded=0;labelBackgroundColor=none;container=0;" parent="fxQP5-2Rpk5uUzQ9qzvW-98" vertex="1">
                    <mxGeometry x="81" y="115" width="129" height="30" as="geometry"/>
                </mxCell>
                <mxCell id="fxQP5-2Rpk5uUzQ9qzvW-106" value="&lt;font color=&quot;#ffffff&quot;&gt;R or S or A&lt;/font&gt;" style="rounded=0;whiteSpace=wrap;html=1;labelBackgroundColor=none;fillStyle=auto;strokeColor=#F0F0F0;fontFamily=Helvetica;fontSize=10;fontColor=#007FFF;fillColor=#999900;container=0;" parent="fxQP5-2Rpk5uUzQ9qzvW-98" vertex="1">
                    <mxGeometry x="10" y="277" width="70" height="15" as="geometry"/>
                </mxCell>
                <mxCell id="fxQP5-2Rpk5uUzQ9qzvW-107" value="：スコープ&lt;br&gt;(R：Request, S：Session, A：Application)" style="text;strokeColor=none;align=left;fillColor=none;html=1;verticalAlign=middle;whiteSpace=wrap;rounded=0;labelBackgroundColor=none;container=0;" parent="fxQP5-2Rpk5uUzQ9qzvW-98" vertex="1">
                    <mxGeometry x="82.5" y="277" width="149" height="43" as="geometry"/>
                </mxCell>
                <mxCell id="fxQP5-2Rpk5uUzQ9qzvW-108" value="GET" style="text;strokeColor=default;align=center;fillColor=none;html=1;verticalAlign=middle;whiteSpace=wrap;rounded=0;labelBackgroundColor=none;fontSize=10;container=0;" parent="fxQP5-2Rpk5uUzQ9qzvW-98" vertex="1">
                    <mxGeometry x="262.5" y="18.5" width="30" height="15" as="geometry"/>
                </mxCell>
                <mxCell id="fxQP5-2Rpk5uUzQ9qzvW-109" value="：処理内容&lt;br&gt;　(GET,、POST、レスポンス &lt;br&gt;　 フォワード、リダイレクト)" style="text;strokeColor=none;align=left;fillColor=none;html=1;verticalAlign=middle;whiteSpace=wrap;rounded=0;labelBackgroundColor=none;container=0;" parent="fxQP5-2Rpk5uUzQ9qzvW-98" vertex="1">
                    <mxGeometry x="291.5" y="12" width="180" height="55" as="geometry"/>
                </mxCell>
                <mxCell id="fxQP5-2Rpk5uUzQ9qzvW-110" value="" style="text;strokeColor=#990000;align=center;fillColor=none;html=1;verticalAlign=middle;whiteSpace=wrap;rounded=0;labelBackgroundColor=none;fontSize=10;dashed=1;strokeWidth=2;perimeterSpacing=0;dashPattern=1 1;glass=1;container=0;" parent="fxQP5-2Rpk5uUzQ9qzvW-98" vertex="1">
                    <mxGeometry x="262.5" y="75.5" width="30" height="15" as="geometry"/>
                </mxCell>
                <mxCell id="fxQP5-2Rpk5uUzQ9qzvW-111" value="：リクエストパラメータ" style="text;strokeColor=none;align=left;fillColor=none;html=1;verticalAlign=middle;whiteSpace=wrap;rounded=0;labelBackgroundColor=none;container=0;" parent="fxQP5-2Rpk5uUzQ9qzvW-98" vertex="1">
                    <mxGeometry x="291.5" y="69" width="180" height="28" as="geometry"/>
                </mxCell>
                <mxCell id="fxQP5-2Rpk5uUzQ9qzvW-112" value="" style="text;strokeColor=default;align=center;fillColor=none;html=1;verticalAlign=middle;whiteSpace=wrap;rounded=0;labelBackgroundColor=none;fontSize=10;dashed=1;strokeWidth=2;perimeterSpacing=0;dashPattern=1 1;glass=1;container=0;" parent="fxQP5-2Rpk5uUzQ9qzvW-98" vertex="1">
                    <mxGeometry x="262.5" y="109" width="30" height="15" as="geometry"/>
                </mxCell>
                <mxCell id="fxQP5-2Rpk5uUzQ9qzvW-113" value="：処理補足" style="text;strokeColor=none;align=left;fillColor=none;html=1;verticalAlign=middle;whiteSpace=wrap;rounded=0;labelBackgroundColor=none;container=0;" parent="fxQP5-2Rpk5uUzQ9qzvW-98" vertex="1">
                    <mxGeometry x="291.5" y="102" width="180" height="28" as="geometry"/>
                </mxCell>
                <mxCell id="fxQP5-2Rpk5uUzQ9qzvW-114" value="：パラメータの&lt;br&gt;　スコープへの保存と取出" style="text;strokeColor=none;align=left;fillColor=none;html=1;verticalAlign=middle;whiteSpace=wrap;rounded=0;labelBackgroundColor=none;container=0;" parent="fxQP5-2Rpk5uUzQ9qzvW-98" vertex="1">
                    <mxGeometry x="81" y="50" width="169" height="30" as="geometry"/>
                </mxCell>
                <mxCell id="fxQP5-2Rpk5uUzQ9qzvW-115" value="" style="endArrow=async;html=1;rounded=0;shadow=1;labelBackgroundColor=default;strokeColor=#82b366;fontFamily=Helvetica;fontSize=10;fontColor=#FFFFFF;shape=connector;strokeWidth=1;startArrow=none;startFill=0;fillColor=#d5e8d4;jumpStyle=line;jumpSize=10;entryX=0;entryY=0.25;entryDx=0;entryDy=0;dashed=1;endFill=1;" parent="fxQP5-2Rpk5uUzQ9qzvW-98" edge="1">
                    <mxGeometry width="50" height="50" relative="1" as="geometry">
                        <mxPoint x="14" y="58" as="sourcePoint"/>
                        <mxPoint x="76" y="58.875" as="targetPoint"/>
                    </mxGeometry>
                </mxCell>
                <mxCell id="fxQP5-2Rpk5uUzQ9qzvW-116" value="：機能ごとの括り" style="text;strokeColor=none;align=left;fillColor=none;html=1;verticalAlign=middle;whiteSpace=wrap;rounded=0;labelBackgroundColor=none;container=0;" parent="fxQP5-2Rpk5uUzQ9qzvW-98" vertex="1">
                    <mxGeometry x="292.5" y="133.5" width="180" height="28" as="geometry"/>
                </mxCell>
                <mxCell id="fxQP5-2Rpk5uUzQ9qzvW-117" value="：処理領域ごとの括り&lt;br&gt;　M：モデル層&lt;br&gt;　V：ビュー層&lt;br&gt;　C：コントローラ層" style="text;strokeColor=none;align=left;fillColor=none;html=1;verticalAlign=middle;whiteSpace=wrap;rounded=0;labelBackgroundColor=none;container=0;" parent="fxQP5-2Rpk5uUzQ9qzvW-98" vertex="1">
                    <mxGeometry x="293.5" y="148" width="180" height="102" as="geometry"/>
                </mxCell>
                <mxCell id="fxQP5-2Rpk5uUzQ9qzvW-118" value="" style="endArrow=classic;startArrow=classic;html=1;rounded=0;fontSize=10;jumpStyle=line;jumpSize=10;strokeWidth=3;" parent="fxQP5-2Rpk5uUzQ9qzvW-98" edge="1">
                    <mxGeometry width="50" height="50" relative="1" as="geometry">
                        <mxPoint x="11" y="26" as="sourcePoint"/>
                        <mxPoint x="80" y="26" as="targetPoint"/>
                    </mxGeometry>
                </mxCell>
                <mxCell id="fxQP5-2Rpk5uUzQ9qzvW-119" value="：データベースとの連係" style="text;strokeColor=none;align=left;fillColor=none;html=1;verticalAlign=middle;whiteSpace=wrap;rounded=0;labelBackgroundColor=none;container=0;" parent="fxQP5-2Rpk5uUzQ9qzvW-98" vertex="1">
                    <mxGeometry x="81" y="20" width="159" height="13" as="geometry"/>
                </mxCell>
                <mxCell id="fxQP5-2Rpk5uUzQ9qzvW-120" value="&lt;font color=&quot;#ffffff&quot;&gt;BO&lt;/font&gt;" style="rounded=0;whiteSpace=wrap;html=1;labelBackgroundColor=none;fillStyle=auto;strokeColor=#3700CC;fontFamily=Helvetica;fontSize=10;fontColor=#ffffff;fillColor=#6a00ff;container=0;" parent="fxQP5-2Rpk5uUzQ9qzvW-98" vertex="1">
                    <mxGeometry x="10" y="159.5" width="70" height="15" as="geometry"/>
                </mxCell>
                <mxCell id="fxQP5-2Rpk5uUzQ9qzvW-121" value="：BO(business Object)&lt;br&gt;　サービス層の動き" style="text;strokeColor=none;align=left;fillColor=none;html=1;verticalAlign=middle;whiteSpace=wrap;rounded=0;labelBackgroundColor=none;container=0;" parent="fxQP5-2Rpk5uUzQ9qzvW-98" vertex="1">
                    <mxGeometry x="81" y="158" width="129" height="30" as="geometry"/>
                </mxCell>
                <mxCell id="fxQP5-2Rpk5uUzQ9qzvW-122" value="&lt;font color=&quot;#ffffff&quot;&gt;DAO&lt;/font&gt;" style="rounded=0;whiteSpace=wrap;html=1;labelBackgroundColor=none;fillStyle=auto;strokeColor=#6F0000;fontFamily=Helvetica;fontSize=10;fontColor=#ffffff;fillColor=#a20025;container=0;" parent="fxQP5-2Rpk5uUzQ9qzvW-98" vertex="1">
                    <mxGeometry x="10" y="194.5" width="70" height="15" as="geometry"/>
                </mxCell>
                <mxCell id="fxQP5-2Rpk5uUzQ9qzvW-123" value="：DAO&lt;br&gt;　(Database Access Object)" style="text;strokeColor=none;align=left;fillColor=none;html=1;verticalAlign=middle;whiteSpace=wrap;rounded=0;labelBackgroundColor=none;container=0;" parent="fxQP5-2Rpk5uUzQ9qzvW-98" vertex="1">
                    <mxGeometry x="81" y="193" width="169" height="30" as="geometry"/>
                </mxCell>
                <mxCell id="fxQP5-2Rpk5uUzQ9qzvW-124" value="&lt;font color=&quot;#ffffff&quot;&gt;OO&lt;/font&gt;" style="rounded=0;whiteSpace=wrap;html=1;labelBackgroundColor=none;fillStyle=auto;strokeColor=#C73500;fontFamily=Helvetica;fontSize=10;fillColor=#fa6800;container=0;fontColor=#000000;" parent="fxQP5-2Rpk5uUzQ9qzvW-98" vertex="1">
                    <mxGeometry x="10" y="228.5" width="70" height="15" as="geometry"/>
                </mxCell>
                <mxCell id="fxQP5-2Rpk5uUzQ9qzvW-125" value="：その他のクラス&lt;br&gt;　(サービス層、&lt;br&gt;　インフラストラクチャ層)" style="text;strokeColor=none;align=left;fillColor=none;html=1;verticalAlign=middle;whiteSpace=wrap;rounded=0;labelBackgroundColor=none;container=0;" parent="fxQP5-2Rpk5uUzQ9qzvW-98" vertex="1">
                    <mxGeometry x="81" y="227" width="169" height="43" as="geometry"/>
                </mxCell>
                <mxCell id="1973" style="edgeStyle=none;html=1;entryX=0;entryY=0.5;entryDx=0;entryDy=0;fontSize=10;fillColor=none;" edge="1" parent="fxQP5-2Rpk5uUzQ9qzvW-1" target="2000">
                    <mxGeometry relative="1" as="geometry">
                        <mxPoint x="-200" y="173" as="sourcePoint"/>
                        <mxPoint x="-106" y="180" as="targetPoint"/>
                    </mxGeometry>
                </mxCell>
                <mxCell id="1976" style="edgeStyle=none;rounded=0;html=1;exitX=0;exitY=0.5;exitDx=0;exitDy=0;fontSize=11;fontColor=#000000;" edge="1" parent="fxQP5-2Rpk5uUzQ9qzvW-1" source="2005">
                    <mxGeometry relative="1" as="geometry">
                        <mxPoint x="-200" y="632" as="targetPoint"/>
                    </mxGeometry>
                </mxCell>
                <mxCell id="1992" style="edgeStyle=none;rounded=0;html=1;exitX=0.75;exitY=1;exitDx=0;exitDy=0;entryX=0.75;entryY=0;entryDx=0;entryDy=0;fontSize=11;fontColor=#000000;fillColor=none;" edge="1" parent="fxQP5-2Rpk5uUzQ9qzvW-1" source="2000" target="2005">
                    <mxGeometry relative="1" as="geometry">
                        <Array as="points"/>
                        <mxPoint x="83.25" y="422.5" as="targetPoint"/>
                    </mxGeometry>
                </mxCell>
                <mxCell id="1998" value="フォワード" style="text;strokeColor=default;align=center;fillColor=none;html=1;verticalAlign=middle;whiteSpace=wrap;rounded=0;labelBackgroundColor=none;fontSize=10;" vertex="1" parent="fxQP5-2Rpk5uUzQ9qzvW-1">
                    <mxGeometry x="68.63" y="195" width="59" height="15" as="geometry"/>
                </mxCell>
                <mxCell id="1999" value="" style="group" vertex="1" connectable="0" parent="fxQP5-2Rpk5uUzQ9qzvW-1">
                    <mxGeometry y="140" width="80" height="45" as="geometry"/>
                </mxCell>
                <mxCell id="2000" value="&lt;span style=&quot;color: rgb(255, 255, 255);&quot;&gt;RoadmapServlet&lt;/span&gt;&lt;font color=&quot;#ffffff&quot;&gt;&lt;br&gt;doPost()&lt;br&gt;&lt;/font&gt;" style="rounded=0;whiteSpace=wrap;html=1;labelBackgroundColor=none;fillStyle=auto;strokeColor=#F0F0F0;fontFamily=Helvetica;fontSize=10;fontColor=#007FFF;fillColor=#0066CC;" vertex="1" parent="1999">
                    <mxGeometry y="20" width="80" height="25" as="geometry"/>
                </mxCell>
                <mxCell id="2001" value="&lt;span style=&quot;font-size: 11px;&quot;&gt;Servlet&lt;/span&gt;" style="text;strokeColor=none;align=left;fillColor=none;html=1;verticalAlign=middle;whiteSpace=wrap;rounded=0;labelBackgroundColor=none;fontSize=10;" vertex="1" parent="1999">
                    <mxGeometry x="17" width="46" height="20" as="geometry"/>
                </mxCell>
                <mxCell id="2002" value="&lt;span style=&quot;font-size: 11px;&quot;&gt;保存&lt;br&gt;(roadmapList)&lt;br&gt;&lt;/span&gt;" style="text;strokeColor=none;align=left;fillColor=none;html=1;verticalAlign=middle;whiteSpace=wrap;rounded=0;labelBackgroundColor=none;fontSize=10;" vertex="1" parent="fxQP5-2Rpk5uUzQ9qzvW-1">
                    <mxGeometry x="-59" y="335" width="80" height="30" as="geometry"/>
                </mxCell>
                <mxCell id="2003" value="" style="endArrow=async;html=1;rounded=0;shadow=1;labelBackgroundColor=default;strokeColor=#82b366;fontFamily=Helvetica;fontSize=10;fontColor=#FFFFFF;shape=connector;strokeWidth=1;startArrow=none;startFill=0;fillColor=#d5e8d4;jumpStyle=line;jumpSize=10;entryX=0.75;entryY=1;entryDx=0;entryDy=0;dashed=1;endFill=1;" edge="1" parent="fxQP5-2Rpk5uUzQ9qzvW-1" target="2012">
                    <mxGeometry width="50" height="50" relative="1" as="geometry">
                        <mxPoint x="60" y="330" as="sourcePoint"/>
                        <mxPoint x="131.75" y="310.875" as="targetPoint"/>
                        <Array as="points">
                            <mxPoint x="-85" y="330"/>
                        </Array>
                    </mxGeometry>
                </mxCell>
                <mxCell id="2004" value="" style="group" vertex="1" connectable="0" parent="fxQP5-2Rpk5uUzQ9qzvW-1">
                    <mxGeometry x="40" y="604.5" width="80" height="35" as="geometry"/>
                </mxCell>
                <mxCell id="2005" value="&lt;span style=&quot;color: rgb(255, 255, 255);&quot;&gt;roadmap.jsp&lt;/span&gt;" style="rounded=0;whiteSpace=wrap;html=1;labelBackgroundColor=none;fillStyle=auto;strokeColor=#F0F0F0;fontFamily=Helvetica;fontSize=10;fontColor=#007FFF;fillColor=#4D9900;" vertex="1" parent="2004">
                    <mxGeometry x="-40" y="20" width="80" height="15" as="geometry"/>
                </mxCell>
                <mxCell id="2006" value="&lt;span style=&quot;font-size: 11px;&quot;&gt;JSP&lt;/span&gt;" style="text;strokeColor=none;align=left;fillColor=none;html=1;verticalAlign=middle;whiteSpace=wrap;rounded=0;labelBackgroundColor=none;fontSize=10;" vertex="1" parent="2004">
                    <mxGeometry x="-15" width="30" height="20" as="geometry"/>
                </mxCell>
                <mxCell id="2007" value="" style="group" vertex="1" connectable="0" parent="fxQP5-2Rpk5uUzQ9qzvW-1">
                    <mxGeometry x="60" y="220" width="200" height="134.39" as="geometry"/>
                </mxCell>
                <mxCell id="2008" value="&lt;font color=&quot;#000000&quot;&gt;&lt;br&gt;&lt;/font&gt;" style="shape=callout;whiteSpace=wrap;html=1;perimeter=calloutPerimeter;fontSize=11;fillColor=#dae8fc;strokeColor=#6c8ebf;base=19;position2=0.47;size=30;position=0.47;align=left;rotation=90;" vertex="1" parent="2007">
                    <mxGeometry x="67.12" y="-69.28" width="62.48" height="203.67" as="geometry"/>
                </mxCell>
                <mxCell id="2009" value="新規ParentElementインスタンスに入力値など必要情報を格納&lt;br&gt;roadmapList中の現在表示中のRoadmapのParentElementsに、ParentNumの箇所に挿入" style="text;strokeColor=none;align=left;fillColor=none;html=1;verticalAlign=middle;whiteSpace=wrap;rounded=0;labelBackgroundColor=none;fontSize=10;fontColor=#000000;" vertex="1" parent="2007">
                    <mxGeometry x="32.32" y="6.34" width="167.68" height="52.28" as="geometry"/>
                </mxCell>
                <mxCell id="2010" value="action=newParent&lt;br&gt;parentName&lt;br&gt;parentNum" style="text;strokeColor=#990000;align=center;fillColor=none;html=1;verticalAlign=middle;whiteSpace=wrap;rounded=0;labelBackgroundColor=none;fontSize=10;dashed=1;strokeWidth=2;perimeterSpacing=0;dashPattern=1 1;glass=1;" vertex="1" parent="fxQP5-2Rpk5uUzQ9qzvW-1">
                    <mxGeometry x="-190" y="177.63" width="90" height="42.37" as="geometry"/>
                </mxCell>
                <mxCell id="2011" value="POST" style="text;strokeColor=default;align=center;fillColor=none;html=1;verticalAlign=middle;whiteSpace=wrap;rounded=0;labelBackgroundColor=none;fontSize=10;" vertex="1" parent="fxQP5-2Rpk5uUzQ9qzvW-1">
                    <mxGeometry x="-160" y="153.4999999999999" width="30" height="15" as="geometry"/>
                </mxCell>
                <mxCell id="2012" value="&lt;font color=&quot;#ffffff&quot;&gt;S：&lt;br&gt;&lt;/font&gt;&lt;span style=&quot;color: rgb(255, 255, 255);&quot;&gt;&quot;currentRoadmap&quot; 表示中のロードマップID&lt;/span&gt;&lt;span style=&quot;color: rgb(255, 255, 255);&quot;&gt;&lt;br&gt;&lt;/span&gt;&lt;span style=&quot;color: rgb(255, 255, 255);&quot;&gt;&quot;roadmapList&quot; ロードマップインスタンスのリスト&lt;/span&gt;&lt;span style=&quot;color: rgb(255, 255, 255);&quot;&gt;&lt;br&gt;&lt;/span&gt;" style="rounded=0;whiteSpace=wrap;html=1;labelBackgroundColor=none;fillStyle=auto;strokeColor=#F0F0F0;fontFamily=Helvetica;fontSize=10;fontColor=#007FFF;fillColor=#999900;align=left;" vertex="1" parent="fxQP5-2Rpk5uUzQ9qzvW-1">
                    <mxGeometry x="-260" y="275" width="233.5" height="35" as="geometry"/>
                </mxCell>
                <mxCell id="2013" value="" style="endArrow=async;html=1;rounded=0;shadow=1;labelBackgroundColor=default;strokeColor=#82b366;fontFamily=Helvetica;fontSize=10;fontColor=#FFFFFF;shape=connector;strokeWidth=1;startArrow=none;startFill=0;fillColor=#d5e8d4;jumpStyle=line;jumpSize=10;entryX=0.5;entryY=1;entryDx=0;entryDy=0;dashed=1;endFill=1;exitX=1;exitY=0.5;exitDx=0;exitDy=0;" edge="1" parent="fxQP5-2Rpk5uUzQ9qzvW-1" source="2012" target="2000">
                    <mxGeometry width="50" height="50" relative="1" as="geometry">
                        <mxPoint x="110" y="220" as="sourcePoint"/>
                        <mxPoint x="172" y="220.875" as="targetPoint"/>
                        <Array as="points">
                            <mxPoint x="40" y="293"/>
                        </Array>
                    </mxGeometry>
                </mxCell>
                <mxCell id="2014" value="取得" style="text;strokeColor=none;align=left;fillColor=none;html=1;verticalAlign=middle;whiteSpace=wrap;rounded=0;labelBackgroundColor=none;fontSize=10;" vertex="1" parent="fxQP5-2Rpk5uUzQ9qzvW-1">
                    <mxGeometry x="5" y="260" width="30" height="30" as="geometry"/>
                </mxCell>
                <mxCell id="2015" value="" style="group" vertex="1" connectable="0" parent="fxQP5-2Rpk5uUzQ9qzvW-1">
                    <mxGeometry x="280" y="350" width="107.93" height="40" as="geometry"/>
                </mxCell>
                <mxCell id="2016" value="&lt;span style=&quot;font-size: 11px;&quot;&gt;BO&lt;/span&gt;" style="text;strokeColor=none;align=left;fillColor=none;html=1;verticalAlign=middle;whiteSpace=wrap;rounded=0;labelBackgroundColor=none;fontSize=10;" vertex="1" parent="2015">
                    <mxGeometry x="34.66476310399712" width="38.6082606071787" height="20" as="geometry"/>
                </mxCell>
                <mxCell id="2017" value="&lt;span style=&quot;text-align: start;&quot;&gt;&lt;font face=&quot;monospace&quot; color=&quot;rgba(0, 0, 0, 0)&quot;&gt;&lt;span style=&quot;font-size: 0px;&quot;&gt;%3CmxGraphModel%3E%3Croot%3E%3CmxCell%20id%3D%220%22%2F%3E%3CmxCell%20id%3D%221%22%20parent%3D%220%22%2F%3E%3CmxCell%20id%3D%222%22%20value%3D%22%26lt%3Bfont%20color%3D%26quot%3B%23ffffff%26quot%3B%26gt%3BS%EF%BC%9A%26lt%3Bbr%26gt%3B%26lt%3B%2Ffont%26gt%3B%26lt%3Bspan%20style%3D%26quot%3Bcolor%3A%20rgb(255%2C%20255%2C%20255)%3B%26quot%3B%26gt%3B%26quot%3BuserId%26quot%3B%20%E3%83%A6%E3%83%BC%E3%82%B6%E3%83%BCID%26lt%3Bbr%26gt%3B%26lt%3B%2Fspan%26gt%3B%22%20style%3D%22rounded%3D0%3BwhiteSpace%3Dwrap%3Bhtml%3D1%3BlabelBackgroundColor%3Dnone%3BfillStyle%3Dauto%3BstrokeColor%3D%23F0F0F0%3BfontFamily%3DHelvetica%3BfontSize%3D10%3BfontColor%3D%23007FFF%3BfillColor%3D%23999900%3Balign%3Dleft%3B%22%20vertex%3D%221%22%20parent%3D%221%22%3E%3CmxGeometry%20x%3D%22116.5%22%20y%3D%222320%22%20width%3D%22103.5%22%20height%3D%2230%22%20as%3D%22geometry%22%2F%3E%3C%2FmxCell%3E%3C%2Froot%3E%3C%2FmxGraphModel%3Edaaaaaa&lt;/span&gt;&lt;/font&gt;&lt;/span&gt;&lt;span style=&quot;background-color: initial;&quot;&gt;RoadmapLogic&lt;/span&gt;&lt;span style=&quot;text-align: start;&quot;&gt;&lt;font face=&quot;monospace&quot; color=&quot;rgba(0, 0, 0, 0)&quot;&gt;&lt;span style=&quot;font-size: 0px;&quot;&gt;&lt;br&gt;&lt;/span&gt;&lt;/font&gt;&lt;/span&gt;&lt;font color=&quot;#ffffff&quot;&gt;createParentElement()&lt;br&gt;&lt;/font&gt;" style="rounded=0;whiteSpace=wrap;html=1;labelBackgroundColor=none;fillStyle=auto;strokeColor=#3700CC;fontFamily=Helvetica;fontSize=10;fontColor=#ffffff;fillColor=#6a00ff;container=0;" vertex="1" parent="2015">
                    <mxGeometry y="20" width="107.92999999999999" height="25" as="geometry"/>
                </mxCell>
                <mxCell id="2018" style="edgeStyle=none;html=1;exitX=0;exitY=0.75;exitDx=0;exitDy=0;" edge="1" parent="fxQP5-2Rpk5uUzQ9qzvW-1" source="2017">
                    <mxGeometry relative="1" as="geometry">
                        <mxPoint x="60" y="389" as="targetPoint"/>
                    </mxGeometry>
                </mxCell>
                <mxCell id="2019" style="edgeStyle=none;html=1;entryX=0;entryY=0.25;entryDx=0;entryDy=0;" edge="1" parent="fxQP5-2Rpk5uUzQ9qzvW-1" target="2017">
                    <mxGeometry relative="1" as="geometry">
                        <mxPoint x="70" y="399" as="targetPoint"/>
                        <mxPoint x="60" y="376.0000000000002" as="sourcePoint"/>
                    </mxGeometry>
                </mxCell>
                <mxCell id="2020" value="" style="group" vertex="1" connectable="0" parent="fxQP5-2Rpk5uUzQ9qzvW-1">
                    <mxGeometry x="563.49" y="472" width="99.75" height="40" as="geometry"/>
                </mxCell>
                <mxCell id="2021" value="ParentElementsDAO&lt;br&gt;insert()" style="rounded=0;whiteSpace=wrap;html=1;labelBackgroundColor=none;fillStyle=auto;strokeColor=#6F0000;fontFamily=Helvetica;fontSize=10;fontColor=#ffffff;fillColor=#a20025;container=0;" vertex="1" parent="2020">
                    <mxGeometry y="20" width="99.75000000000003" height="25" as="geometry"/>
                </mxCell>
                <mxCell id="2022" value="&lt;span style=&quot;font-size: 11px;&quot;&gt;DAO&lt;/span&gt;" style="text;strokeColor=none;align=left;fillColor=none;html=1;verticalAlign=middle;whiteSpace=wrap;rounded=0;labelBackgroundColor=none;fontSize=10;" vertex="1" parent="2020">
                    <mxGeometry x="28.9484265734266" width="41.85314685314686" height="20" as="geometry"/>
                </mxCell>
                <mxCell id="2029" value="" style="group" vertex="1" connectable="0" parent="fxQP5-2Rpk5uUzQ9qzvW-1">
                    <mxGeometry x="743.75" y="230.25" width="73" height="111.75" as="geometry"/>
                </mxCell>
                <mxCell id="2030" value="" style="shape=cylinder3;whiteSpace=wrap;html=1;boundedLbl=1;backgroundOutline=1;size=15;fontSize=11;fillColor=#f5f5f5;fontColor=#333333;strokeColor=#666666;" vertex="1" parent="2029">
                    <mxGeometry x="6.5" y="5" width="60" height="80" as="geometry"/>
                </mxCell>
                <mxCell id="2031" value="&lt;span style=&quot;font-size: 11px;&quot;&gt;PARENT_ELEMENTS&lt;br&gt;テーブル&lt;br&gt;&lt;/span&gt;" style="text;strokeColor=none;align=center;fillColor=none;html=1;verticalAlign=middle;whiteSpace=wrap;rounded=0;labelBackgroundColor=none;fontSize=10;" vertex="1" parent="2029">
                    <mxGeometry y="87.75" width="73" height="20" as="geometry"/>
                </mxCell>
                <mxCell id="2039" value="" style="endArrow=classic;startArrow=classic;html=1;rounded=0;fontSize=10;jumpStyle=line;jumpSize=10;strokeWidth=3;exitX=1;exitY=0.5;exitDx=0;exitDy=0;entryX=0;entryY=0.5;entryDx=0;entryDy=0;entryPerimeter=0;" edge="1" parent="fxQP5-2Rpk5uUzQ9qzvW-1" source="2021" target="2180">
                    <mxGeometry width="50" height="50" relative="1" as="geometry">
                        <mxPoint x="723.9400000000005" y="383" as="sourcePoint"/>
                        <mxPoint x="760.25" y="420" as="targetPoint"/>
                    </mxGeometry>
                </mxCell>
                <mxCell id="2041" value="&lt;span style=&quot;font-size: 11px;&quot;&gt;ParentElement&lt;/span&gt;" style="text;strokeColor=none;align=left;fillColor=none;html=1;verticalAlign=middle;whiteSpace=wrap;rounded=0;labelBackgroundColor=none;fontSize=10;" vertex="1" parent="fxQP5-2Rpk5uUzQ9qzvW-1">
                    <mxGeometry x="150.75" y="354" width="56.5" height="20" as="geometry"/>
                </mxCell>
                <mxCell id="2042" value="&lt;span style=&quot;font-size: 11px;&quot;&gt;処理完了：true&lt;br&gt;処理未完了：false&lt;br&gt;&lt;/span&gt;" style="text;strokeColor=none;align=left;fillColor=none;html=1;verticalAlign=middle;whiteSpace=wrap;rounded=0;labelBackgroundColor=none;fontSize=10;" vertex="1" parent="fxQP5-2Rpk5uUzQ9qzvW-1">
                    <mxGeometry x="140" y="400" width="96.5" height="20" as="geometry"/>
                </mxCell>
                <mxCell id="2050" value="&lt;span style=&quot;font-size: 11px;&quot;&gt;ParentElement&lt;/span&gt;" style="text;strokeColor=none;align=left;fillColor=none;html=1;verticalAlign=middle;whiteSpace=wrap;rounded=0;labelBackgroundColor=none;fontSize=10;" vertex="1" parent="fxQP5-2Rpk5uUzQ9qzvW-1">
                    <mxGeometry x="393.96" y="474" width="89.92" height="20" as="geometry"/>
                </mxCell>
                <mxCell id="2054" value="" style="group" vertex="1" connectable="0" parent="fxQP5-2Rpk5uUzQ9qzvW-1">
                    <mxGeometry x="550" y="427" width="180" height="68.25" as="geometry"/>
                </mxCell>
                <mxCell id="2055" value="&lt;font color=&quot;#000000&quot;&gt;&lt;br&gt;&lt;/font&gt;" style="shape=callout;whiteSpace=wrap;html=1;perimeter=calloutPerimeter;fontSize=11;fillColor=#dae8fc;strokeColor=#6c8ebf;base=13;position2=0.47;size=30;position=0.47;align=left;" vertex="1" parent="2054">
                    <mxGeometry y="1.664634146341463" width="170.99999999999997" height="66.58536585365853" as="geometry"/>
                </mxCell>
                <mxCell id="2056" value="INSERT文：引数のParentElementをParentNumの位置に挿入" style="text;strokeColor=none;align=left;fillColor=none;html=1;verticalAlign=middle;whiteSpace=wrap;rounded=0;labelBackgroundColor=none;fontSize=10;fontColor=#000000;" vertex="1" parent="2054">
                    <mxGeometry y="0.741373801916933" width="167.99999999999997" height="44.386485623003196" as="geometry"/>
                </mxCell>
                <mxCell id="2060" value="&lt;span style=&quot;font-size: 11px;&quot;&gt;処理件数&lt;/span&gt;" style="text;strokeColor=none;align=left;fillColor=none;html=1;verticalAlign=middle;whiteSpace=wrap;rounded=0;labelBackgroundColor=none;fontSize=10;" vertex="1" parent="fxQP5-2Rpk5uUzQ9qzvW-1">
                    <mxGeometry x="405.86" y="515.5" width="56.5" height="20" as="geometry"/>
                </mxCell>
                <mxCell id="2079" value="" style="endArrow=async;html=1;rounded=0;shadow=1;labelBackgroundColor=default;strokeColor=#82b366;fontFamily=Helvetica;fontSize=10;fontColor=#FFFFFF;shape=connector;strokeWidth=1;startArrow=none;startFill=0;fillColor=#d5e8d4;jumpStyle=line;jumpSize=10;entryX=0.25;entryY=0;entryDx=0;entryDy=0;dashed=1;endFill=1;exitX=0.5;exitY=1;exitDx=0;exitDy=0;" edge="1" parent="fxQP5-2Rpk5uUzQ9qzvW-1" source="2012" target="2005">
                    <mxGeometry width="50" height="50" relative="1" as="geometry">
                        <mxPoint x="-132" y="420" as="sourcePoint"/>
                        <mxPoint x="-70" y="420.875" as="targetPoint"/>
                        <Array as="points">
                            <mxPoint x="-143" y="480"/>
                            <mxPoint x="20" y="480"/>
                        </Array>
                    </mxGeometry>
                </mxCell>
                <mxCell id="2080" value="取得" style="text;strokeColor=none;align=left;fillColor=none;html=1;verticalAlign=middle;whiteSpace=wrap;rounded=0;labelBackgroundColor=none;fontSize=10;" vertex="1" parent="fxQP5-2Rpk5uUzQ9qzvW-1">
                    <mxGeometry x="-140" y="449.13" width="30" height="30" as="geometry"/>
                </mxCell>
                <mxCell id="2092" style="edgeStyle=none;html=1;exitX=0.878;exitY=1.048;exitDx=0;exitDy=0;entryX=0;entryY=0.25;entryDx=0;entryDy=0;exitPerimeter=0;rounded=0;" edge="1" parent="fxQP5-2Rpk5uUzQ9qzvW-1" source="2017" target="2021">
                    <mxGeometry relative="1" as="geometry">
                        <Array as="points">
                            <mxPoint x="375" y="498"/>
                        </Array>
                    </mxGeometry>
                </mxCell>
                <mxCell id="2093" style="edgeStyle=none;html=1;exitX=0;exitY=0.75;exitDx=0;exitDy=0;entryX=0.75;entryY=1;entryDx=0;entryDy=0;rounded=0;" edge="1" parent="fxQP5-2Rpk5uUzQ9qzvW-1" source="2021" target="2017">
                    <mxGeometry relative="1" as="geometry">
                        <Array as="points">
                            <mxPoint x="360" y="510"/>
                        </Array>
                    </mxGeometry>
                </mxCell>
                <mxCell id="2094" value="" style="group" vertex="1" connectable="0" parent="fxQP5-2Rpk5uUzQ9qzvW-1">
                    <mxGeometry x="560" y="230" width="99.75" height="40" as="geometry"/>
                </mxCell>
                <mxCell id="2095" value="ParentElementsDAO&lt;br&gt;updateBeforeInsert()" style="rounded=0;whiteSpace=wrap;html=1;labelBackgroundColor=none;fillStyle=auto;strokeColor=#6F0000;fontFamily=Helvetica;fontSize=10;fontColor=#ffffff;fillColor=#a20025;container=0;" vertex="1" parent="2094">
                    <mxGeometry y="20" width="99.75000000000003" height="25" as="geometry"/>
                </mxCell>
                <mxCell id="2096" value="&lt;span style=&quot;font-size: 11px;&quot;&gt;DAO&lt;/span&gt;" style="text;strokeColor=none;align=left;fillColor=none;html=1;verticalAlign=middle;whiteSpace=wrap;rounded=0;labelBackgroundColor=none;fontSize=10;" vertex="1" parent="2094">
                    <mxGeometry x="28.9484265734266" width="41.85314685314686" height="20" as="geometry"/>
                </mxCell>
                <mxCell id="2100" value="" style="endArrow=classic;startArrow=classic;html=1;rounded=0;fontSize=10;jumpStyle=line;jumpSize=10;strokeWidth=3;exitX=1;exitY=0.5;exitDx=0;exitDy=0;entryX=0;entryY=0;entryDx=0;entryDy=27.5;entryPerimeter=0;" edge="1" source="2095" target="2030" parent="fxQP5-2Rpk5uUzQ9qzvW-1">
                    <mxGeometry width="50" height="50" relative="1" as="geometry">
                        <mxPoint x="723.9400000000005" y="263" as="sourcePoint"/>
                        <mxPoint x="750.25" y="262" as="targetPoint"/>
                    </mxGeometry>
                </mxCell>
                <mxCell id="2101" value="" style="group" vertex="1" connectable="0" parent="fxQP5-2Rpk5uUzQ9qzvW-1">
                    <mxGeometry x="540" y="180" width="206.31" height="68.25" as="geometry"/>
                </mxCell>
                <mxCell id="2102" value="&lt;font color=&quot;#000000&quot;&gt;&lt;br&gt;&lt;/font&gt;" style="shape=callout;whiteSpace=wrap;html=1;perimeter=calloutPerimeter;fontSize=11;fillColor=#dae8fc;strokeColor=#6c8ebf;base=13;position2=0.47;size=30;position=0.47;align=left;" vertex="1" parent="2101">
                    <mxGeometry y="1.664634146341463" width="195.9945" height="66.58536585365853" as="geometry"/>
                </mxCell>
                <mxCell id="2103" value="UPDATE文：挿入するParentNum以上で絞り込み後、該当するParentNumを+1" style="text;strokeColor=none;align=left;fillColor=none;html=1;verticalAlign=middle;whiteSpace=wrap;rounded=0;labelBackgroundColor=none;fontSize=10;fontColor=#000000;" vertex="1" parent="2101">
                    <mxGeometry y="0.741373801916933" width="192.55599999999998" height="44.386485623003196" as="geometry"/>
                </mxCell>
                <mxCell id="2104" style="edgeStyle=none;html=1;exitX=0.75;exitY=0;exitDx=0;exitDy=0;entryX=0;entryY=0.25;entryDx=0;entryDy=0;rounded=0;" edge="1" parent="fxQP5-2Rpk5uUzQ9qzvW-1" source="2017" target="2095">
                    <mxGeometry relative="1" as="geometry">
                        <Array as="points">
                            <mxPoint x="361" y="256"/>
                        </Array>
                    </mxGeometry>
                </mxCell>
                <mxCell id="2105" style="edgeStyle=none;rounded=0;html=1;exitX=0;exitY=0.75;exitDx=0;exitDy=0;entryX=0.829;entryY=-0.004;entryDx=0;entryDy=0;entryPerimeter=0;" edge="1" parent="fxQP5-2Rpk5uUzQ9qzvW-1" source="2095" target="2017">
                    <mxGeometry relative="1" as="geometry">
                        <Array as="points">
                            <mxPoint x="369" y="270"/>
                        </Array>
                    </mxGeometry>
                </mxCell>
                <mxCell id="2106" value="&lt;span style=&quot;font-size: 11px;&quot;&gt;処理件数&lt;/span&gt;" style="text;strokeColor=none;align=left;fillColor=none;html=1;verticalAlign=middle;whiteSpace=wrap;rounded=0;labelBackgroundColor=none;fontSize=10;" vertex="1" parent="fxQP5-2Rpk5uUzQ9qzvW-1">
                    <mxGeometry x="401.19" y="275" width="56.5" height="20" as="geometry"/>
                </mxCell>
                <mxCell id="2125" style="edgeStyle=none;html=1;entryX=0;entryY=0.5;entryDx=0;entryDy=0;fontSize=10;fillColor=none;" edge="1" target="2130" parent="fxQP5-2Rpk5uUzQ9qzvW-1">
                    <mxGeometry relative="1" as="geometry">
                        <mxPoint x="-200" y="853" as="sourcePoint"/>
                        <mxPoint x="-106" y="860" as="targetPoint"/>
                    </mxGeometry>
                </mxCell>
                <mxCell id="2126" style="edgeStyle=none;rounded=0;html=1;exitX=0;exitY=0.5;exitDx=0;exitDy=0;fontSize=11;fontColor=#000000;" edge="1" source="2135" parent="fxQP5-2Rpk5uUzQ9qzvW-1">
                    <mxGeometry relative="1" as="geometry">
                        <mxPoint x="-200" y="1312" as="targetPoint"/>
                    </mxGeometry>
                </mxCell>
                <mxCell id="2127" style="edgeStyle=none;rounded=0;html=1;exitX=0.75;exitY=1;exitDx=0;exitDy=0;entryX=0.75;entryY=0;entryDx=0;entryDy=0;fontSize=11;fontColor=#000000;fillColor=none;" edge="1" source="2130" target="2135" parent="fxQP5-2Rpk5uUzQ9qzvW-1">
                    <mxGeometry relative="1" as="geometry">
                        <Array as="points"/>
                        <mxPoint x="83.25" y="1102.5" as="targetPoint"/>
                    </mxGeometry>
                </mxCell>
                <mxCell id="2128" value="フォワード" style="text;strokeColor=default;align=center;fillColor=none;html=1;verticalAlign=middle;whiteSpace=wrap;rounded=0;labelBackgroundColor=none;fontSize=10;" vertex="1" parent="fxQP5-2Rpk5uUzQ9qzvW-1">
                    <mxGeometry x="68.63" y="875" width="59" height="15" as="geometry"/>
                </mxCell>
                <mxCell id="2129" value="" style="group" vertex="1" connectable="0" parent="fxQP5-2Rpk5uUzQ9qzvW-1">
                    <mxGeometry y="820" width="80" height="45" as="geometry"/>
                </mxCell>
                <mxCell id="2130" value="&lt;span style=&quot;color: rgb(255, 255, 255);&quot;&gt;RoadmapServlet&lt;/span&gt;&lt;font color=&quot;#ffffff&quot;&gt;&lt;br&gt;doPost()&lt;br&gt;&lt;/font&gt;" style="rounded=0;whiteSpace=wrap;html=1;labelBackgroundColor=none;fillStyle=auto;strokeColor=#F0F0F0;fontFamily=Helvetica;fontSize=10;fontColor=#007FFF;fillColor=#0066CC;" vertex="1" parent="2129">
                    <mxGeometry y="20" width="80" height="25" as="geometry"/>
                </mxCell>
                <mxCell id="2131" value="&lt;span style=&quot;font-size: 11px;&quot;&gt;Servlet&lt;/span&gt;" style="text;strokeColor=none;align=left;fillColor=none;html=1;verticalAlign=middle;whiteSpace=wrap;rounded=0;labelBackgroundColor=none;fontSize=10;" vertex="1" parent="2129">
                    <mxGeometry x="17" width="46" height="20" as="geometry"/>
                </mxCell>
                <mxCell id="2132" value="&lt;span style=&quot;font-size: 11px;&quot;&gt;保存&lt;br&gt;(roadmapList)&lt;br&gt;&lt;/span&gt;" style="text;strokeColor=none;align=left;fillColor=none;html=1;verticalAlign=middle;whiteSpace=wrap;rounded=0;labelBackgroundColor=none;fontSize=10;" vertex="1" parent="fxQP5-2Rpk5uUzQ9qzvW-1">
                    <mxGeometry x="-59" y="1015" width="80" height="30" as="geometry"/>
                </mxCell>
                <mxCell id="2133" value="" style="endArrow=async;html=1;rounded=0;shadow=1;labelBackgroundColor=default;strokeColor=#82b366;fontFamily=Helvetica;fontSize=10;fontColor=#FFFFFF;shape=connector;strokeWidth=1;startArrow=none;startFill=0;fillColor=#d5e8d4;jumpStyle=line;jumpSize=10;entryX=0.75;entryY=1;entryDx=0;entryDy=0;dashed=1;endFill=1;" edge="1" target="2142" parent="fxQP5-2Rpk5uUzQ9qzvW-1">
                    <mxGeometry width="50" height="50" relative="1" as="geometry">
                        <mxPoint x="60" y="1010" as="sourcePoint"/>
                        <mxPoint x="131.75" y="990.875" as="targetPoint"/>
                        <Array as="points">
                            <mxPoint x="-85" y="1010"/>
                        </Array>
                    </mxGeometry>
                </mxCell>
                <mxCell id="2134" value="" style="group" vertex="1" connectable="0" parent="fxQP5-2Rpk5uUzQ9qzvW-1">
                    <mxGeometry x="40" y="1284.5" width="80" height="35" as="geometry"/>
                </mxCell>
                <mxCell id="2135" value="&lt;span style=&quot;color: rgb(255, 255, 255);&quot;&gt;roadmap.jsp&lt;/span&gt;" style="rounded=0;whiteSpace=wrap;html=1;labelBackgroundColor=none;fillStyle=auto;strokeColor=#F0F0F0;fontFamily=Helvetica;fontSize=10;fontColor=#007FFF;fillColor=#4D9900;" vertex="1" parent="2134">
                    <mxGeometry x="-40" y="20" width="80" height="15" as="geometry"/>
                </mxCell>
                <mxCell id="2136" value="&lt;span style=&quot;font-size: 11px;&quot;&gt;JSP&lt;/span&gt;" style="text;strokeColor=none;align=left;fillColor=none;html=1;verticalAlign=middle;whiteSpace=wrap;rounded=0;labelBackgroundColor=none;fontSize=10;" vertex="1" parent="2134">
                    <mxGeometry x="-15" width="30" height="20" as="geometry"/>
                </mxCell>
                <mxCell id="2137" value="" style="group" vertex="1" connectable="0" parent="fxQP5-2Rpk5uUzQ9qzvW-1">
                    <mxGeometry x="60" y="900" width="200" height="134.39" as="geometry"/>
                </mxCell>
                <mxCell id="2138" value="&lt;font color=&quot;#000000&quot;&gt;&lt;br&gt;&lt;/font&gt;" style="shape=callout;whiteSpace=wrap;html=1;perimeter=calloutPerimeter;fontSize=11;fillColor=#dae8fc;strokeColor=#6c8ebf;base=19;position2=0.47;size=30;position=0.47;align=left;rotation=90;" vertex="1" parent="2137">
                    <mxGeometry x="67.12" y="-69.28" width="62.48" height="203.67" as="geometry"/>
                </mxCell>
                <mxCell id="2139" value="新規ChildElementインスタンスに入力値など必要情報を格納&lt;br&gt;roadmapList中の現在表示中のRoadmapのChildElementsに、ChildNumの箇所に挿入" style="text;strokeColor=none;align=left;fillColor=none;html=1;verticalAlign=middle;whiteSpace=wrap;rounded=0;labelBackgroundColor=none;fontSize=10;fontColor=#000000;" vertex="1" parent="2137">
                    <mxGeometry x="32.32" y="6.34" width="167.68" height="52.28" as="geometry"/>
                </mxCell>
                <mxCell id="2140" value="action=newChild&lt;br&gt;childName&lt;br&gt;belongToParentNum&lt;br&gt;childNum&lt;br&gt;childTag" style="text;strokeColor=#990000;align=center;fillColor=none;html=1;verticalAlign=middle;whiteSpace=wrap;rounded=0;labelBackgroundColor=none;fontSize=10;dashed=1;strokeWidth=2;perimeterSpacing=0;dashPattern=1 1;glass=1;" vertex="1" parent="fxQP5-2Rpk5uUzQ9qzvW-1">
                    <mxGeometry x="-190" y="857.63" width="90" height="62.37" as="geometry"/>
                </mxCell>
                <mxCell id="2141" value="POST" style="text;strokeColor=default;align=center;fillColor=none;html=1;verticalAlign=middle;whiteSpace=wrap;rounded=0;labelBackgroundColor=none;fontSize=10;" vertex="1" parent="fxQP5-2Rpk5uUzQ9qzvW-1">
                    <mxGeometry x="-160" y="833.4999999999999" width="30" height="15" as="geometry"/>
                </mxCell>
                <mxCell id="2142" value="&lt;font color=&quot;#ffffff&quot;&gt;S：&lt;br&gt;&lt;/font&gt;&lt;span style=&quot;color: rgb(255, 255, 255);&quot;&gt;&quot;currentRoadmap&quot; 表示中のロードマップID&lt;/span&gt;&lt;span style=&quot;color: rgb(255, 255, 255);&quot;&gt;&lt;br&gt;&lt;/span&gt;&lt;span style=&quot;color: rgb(255, 255, 255);&quot;&gt;&quot;roadmapList&quot; ロードマップインスタンスのリスト&lt;/span&gt;&lt;span style=&quot;color: rgb(255, 255, 255);&quot;&gt;&lt;br&gt;&lt;/span&gt;" style="rounded=0;whiteSpace=wrap;html=1;labelBackgroundColor=none;fillStyle=auto;strokeColor=#F0F0F0;fontFamily=Helvetica;fontSize=10;fontColor=#007FFF;fillColor=#999900;align=left;" vertex="1" parent="fxQP5-2Rpk5uUzQ9qzvW-1">
                    <mxGeometry x="-260" y="955" width="233.5" height="35" as="geometry"/>
                </mxCell>
                <mxCell id="2143" value="" style="endArrow=async;html=1;rounded=0;shadow=1;labelBackgroundColor=default;strokeColor=#82b366;fontFamily=Helvetica;fontSize=10;fontColor=#FFFFFF;shape=connector;strokeWidth=1;startArrow=none;startFill=0;fillColor=#d5e8d4;jumpStyle=line;jumpSize=10;entryX=0.5;entryY=1;entryDx=0;entryDy=0;dashed=1;endFill=1;exitX=1;exitY=0.5;exitDx=0;exitDy=0;" edge="1" source="2142" target="2130" parent="fxQP5-2Rpk5uUzQ9qzvW-1">
                    <mxGeometry width="50" height="50" relative="1" as="geometry">
                        <mxPoint x="110" y="900" as="sourcePoint"/>
                        <mxPoint x="172" y="900.875" as="targetPoint"/>
                        <Array as="points">
                            <mxPoint x="40" y="973"/>
                        </Array>
                    </mxGeometry>
                </mxCell>
                <mxCell id="2144" value="取得" style="text;strokeColor=none;align=left;fillColor=none;html=1;verticalAlign=middle;whiteSpace=wrap;rounded=0;labelBackgroundColor=none;fontSize=10;" vertex="1" parent="fxQP5-2Rpk5uUzQ9qzvW-1">
                    <mxGeometry x="5" y="940" width="30" height="30" as="geometry"/>
                </mxCell>
                <mxCell id="2145" value="" style="group" vertex="1" connectable="0" parent="fxQP5-2Rpk5uUzQ9qzvW-1">
                    <mxGeometry x="280" y="1030" width="107.93" height="40" as="geometry"/>
                </mxCell>
                <mxCell id="2146" value="&lt;span style=&quot;font-size: 11px;&quot;&gt;BO&lt;/span&gt;" style="text;strokeColor=none;align=left;fillColor=none;html=1;verticalAlign=middle;whiteSpace=wrap;rounded=0;labelBackgroundColor=none;fontSize=10;" vertex="1" parent="2145">
                    <mxGeometry x="34.66476310399712" width="38.6082606071787" height="20" as="geometry"/>
                </mxCell>
                <mxCell id="2147" value="&lt;span style=&quot;text-align: start;&quot;&gt;&lt;font face=&quot;monospace&quot; color=&quot;rgba(0, 0, 0, 0)&quot;&gt;&lt;span style=&quot;font-size: 0px;&quot;&gt;%3CmxGraphModel%3E%3Croot%3E%3CmxCell%20id%3D%220%22%2F%3E%3CmxCell%20id%3D%221%22%20parent%3D%220%22%2F%3E%3CmxCell%20id%3D%222%22%20value%3D%22%26lt%3Bfont%20color%3D%26quot%3B%23ffffff%26quot%3B%26gt%3BS%EF%BC%9A%26lt%3Bbr%26gt%3B%26lt%3B%2Ffont%26gt%3B%26lt%3Bspan%20style%3D%26quot%3Bcolor%3A%20rgb(255%2C%20255%2C%20255)%3B%26quot%3B%26gt%3B%26quot%3BuserId%26quot%3B%20%E3%83%A6%E3%83%BC%E3%82%B6%E3%83%BCID%26lt%3Bbr%26gt%3B%26lt%3B%2Fspan%26gt%3B%22%20style%3D%22rounded%3D0%3BwhiteSpace%3Dwrap%3Bhtml%3D1%3BlabelBackgroundColor%3Dnone%3BfillStyle%3Dauto%3BstrokeColor%3D%23F0F0F0%3BfontFamily%3DHelvetica%3BfontSize%3D10%3BfontColor%3D%23007FFF%3BfillColor%3D%23999900%3Balign%3Dleft%3B%22%20vertex%3D%221%22%20parent%3D%221%22%3E%3CmxGeometry%20x%3D%22116.5%22%20y%3D%222320%22%20width%3D%22103.5%22%20height%3D%2230%22%20as%3D%22geometry%22%2F%3E%3C%2FmxCell%3E%3C%2Froot%3E%3C%2FmxGraphModel%3Edaaaaaa&lt;/span&gt;&lt;/font&gt;&lt;/span&gt;&lt;span style=&quot;background-color: initial;&quot;&gt;RoadmapLogic&lt;/span&gt;&lt;span style=&quot;text-align: start;&quot;&gt;&lt;font face=&quot;monospace&quot; color=&quot;rgba(0, 0, 0, 0)&quot;&gt;&lt;span style=&quot;font-size: 0px;&quot;&gt;&lt;br&gt;&lt;/span&gt;&lt;/font&gt;&lt;/span&gt;&lt;font color=&quot;#ffffff&quot;&gt;createChildElement()&lt;br&gt;&lt;/font&gt;" style="rounded=0;whiteSpace=wrap;html=1;labelBackgroundColor=none;fillStyle=auto;strokeColor=#3700CC;fontFamily=Helvetica;fontSize=10;fontColor=#ffffff;fillColor=#6a00ff;container=0;" vertex="1" parent="2145">
                    <mxGeometry y="20" width="107.92999999999999" height="25" as="geometry"/>
                </mxCell>
                <mxCell id="2148" style="edgeStyle=none;html=1;exitX=0;exitY=0.75;exitDx=0;exitDy=0;" edge="1" source="2147" parent="fxQP5-2Rpk5uUzQ9qzvW-1">
                    <mxGeometry relative="1" as="geometry">
                        <mxPoint x="60" y="1069" as="targetPoint"/>
                    </mxGeometry>
                </mxCell>
                <mxCell id="2149" style="edgeStyle=none;html=1;entryX=0;entryY=0.25;entryDx=0;entryDy=0;" edge="1" target="2147" parent="fxQP5-2Rpk5uUzQ9qzvW-1">
                    <mxGeometry relative="1" as="geometry">
                        <mxPoint x="70" y="1079" as="targetPoint"/>
                        <mxPoint x="60" y="1056" as="sourcePoint"/>
                    </mxGeometry>
                </mxCell>
                <mxCell id="2150" value="" style="group" vertex="1" connectable="0" parent="fxQP5-2Rpk5uUzQ9qzvW-1">
                    <mxGeometry x="560" y="1030" width="99.75" height="40" as="geometry"/>
                </mxCell>
                <mxCell id="2151" value="ChildElementsDAO&lt;br&gt;insert()" style="rounded=0;whiteSpace=wrap;html=1;labelBackgroundColor=none;fillStyle=auto;strokeColor=#6F0000;fontFamily=Helvetica;fontSize=10;fontColor=#ffffff;fillColor=#a20025;container=0;" vertex="1" parent="2150">
                    <mxGeometry y="20" width="99.75000000000003" height="25" as="geometry"/>
                </mxCell>
                <mxCell id="2152" value="&lt;span style=&quot;font-size: 11px;&quot;&gt;DAO&lt;/span&gt;" style="text;strokeColor=none;align=left;fillColor=none;html=1;verticalAlign=middle;whiteSpace=wrap;rounded=0;labelBackgroundColor=none;fontSize=10;" vertex="1" parent="2150">
                    <mxGeometry x="28.9484265734266" width="41.85314685314686" height="20" as="geometry"/>
                </mxCell>
                <mxCell id="2153" value="" style="group" vertex="1" connectable="0" parent="fxQP5-2Rpk5uUzQ9qzvW-1">
                    <mxGeometry x="743.75" y="953.25" width="73" height="111.75" as="geometry"/>
                </mxCell>
                <mxCell id="2154" value="" style="shape=cylinder3;whiteSpace=wrap;html=1;boundedLbl=1;backgroundOutline=1;size=15;fontSize=11;fillColor=#f5f5f5;fontColor=#333333;strokeColor=#666666;" vertex="1" parent="2153">
                    <mxGeometry x="6.5" y="5" width="60" height="80" as="geometry"/>
                </mxCell>
                <mxCell id="2155" value="&lt;span style=&quot;font-size: 11px;&quot;&gt;CHILD_ELEMENTS&lt;br&gt;テーブル&lt;br&gt;&lt;/span&gt;" style="text;strokeColor=none;align=center;fillColor=none;html=1;verticalAlign=middle;whiteSpace=wrap;rounded=0;labelBackgroundColor=none;fontSize=10;" vertex="1" parent="2153">
                    <mxGeometry y="87.75" width="73" height="20" as="geometry"/>
                </mxCell>
                <mxCell id="2156" value="" style="endArrow=classic;startArrow=classic;html=1;rounded=0;fontSize=10;jumpStyle=line;jumpSize=10;strokeWidth=3;exitX=1;exitY=0.5;exitDx=0;exitDy=0;entryX=0;entryY=0;entryDx=0;entryDy=52.5;entryPerimeter=0;" edge="1" source="2151" target="2154" parent="fxQP5-2Rpk5uUzQ9qzvW-1">
                    <mxGeometry width="50" height="50" relative="1" as="geometry">
                        <mxPoint x="723.9400000000005" y="1063" as="sourcePoint"/>
                        <mxPoint x="760.25" y="1100" as="targetPoint"/>
                    </mxGeometry>
                </mxCell>
                <mxCell id="2157" value="&lt;span style=&quot;font-size: 11px;&quot;&gt;ChildElement&lt;/span&gt;" style="text;strokeColor=none;align=left;fillColor=none;html=1;verticalAlign=middle;whiteSpace=wrap;rounded=0;labelBackgroundColor=none;fontSize=10;" vertex="1" parent="fxQP5-2Rpk5uUzQ9qzvW-1">
                    <mxGeometry x="150.75" y="1034" width="69.25" height="20" as="geometry"/>
                </mxCell>
                <mxCell id="2158" value="&lt;span style=&quot;font-size: 11px;&quot;&gt;処理完了：true&lt;br&gt;処理未完了：false&lt;br&gt;&lt;/span&gt;" style="text;strokeColor=none;align=left;fillColor=none;html=1;verticalAlign=middle;whiteSpace=wrap;rounded=0;labelBackgroundColor=none;fontSize=10;" vertex="1" parent="fxQP5-2Rpk5uUzQ9qzvW-1">
                    <mxGeometry x="142" y="1078" width="96.5" height="20" as="geometry"/>
                </mxCell>
                <mxCell id="2159" value="&lt;span style=&quot;font-size: 11px;&quot;&gt;ParentElement&lt;/span&gt;" style="text;strokeColor=none;align=left;fillColor=none;html=1;verticalAlign=middle;whiteSpace=wrap;rounded=0;labelBackgroundColor=none;fontSize=10;" vertex="1" parent="fxQP5-2Rpk5uUzQ9qzvW-1">
                    <mxGeometry x="401.19" y="1034.3899999999999" width="89.92" height="20" as="geometry"/>
                </mxCell>
                <mxCell id="2160" value="" style="group" vertex="1" connectable="0" parent="fxQP5-2Rpk5uUzQ9qzvW-1">
                    <mxGeometry x="540" y="980" width="180" height="68.25" as="geometry"/>
                </mxCell>
                <mxCell id="2161" value="&lt;font color=&quot;#000000&quot;&gt;&lt;br&gt;&lt;/font&gt;" style="shape=callout;whiteSpace=wrap;html=1;perimeter=calloutPerimeter;fontSize=11;fillColor=#dae8fc;strokeColor=#6c8ebf;base=13;position2=0.47;size=30;position=0.47;align=left;" vertex="1" parent="2160">
                    <mxGeometry y="1.664634146341463" width="170.99999999999997" height="66.58536585365853" as="geometry"/>
                </mxCell>
                <mxCell id="2162" value="INSERT文：引数のChildElementをChildNumの位置に挿入" style="text;strokeColor=none;align=left;fillColor=none;html=1;verticalAlign=middle;whiteSpace=wrap;rounded=0;labelBackgroundColor=none;fontSize=10;fontColor=#000000;" vertex="1" parent="2160">
                    <mxGeometry y="0.741373801916933" width="167.99999999999997" height="44.386485623003196" as="geometry"/>
                </mxCell>
                <mxCell id="2163" value="&lt;span style=&quot;font-size: 11px;&quot;&gt;処理件数&lt;/span&gt;" style="text;strokeColor=none;align=left;fillColor=none;html=1;verticalAlign=middle;whiteSpace=wrap;rounded=0;labelBackgroundColor=none;fontSize=10;" vertex="1" parent="fxQP5-2Rpk5uUzQ9qzvW-1">
                    <mxGeometry x="401.67" y="1073" width="56.5" height="20" as="geometry"/>
                </mxCell>
                <mxCell id="2164" value="" style="endArrow=async;html=1;rounded=0;shadow=1;labelBackgroundColor=default;strokeColor=#82b366;fontFamily=Helvetica;fontSize=10;fontColor=#FFFFFF;shape=connector;strokeWidth=1;startArrow=none;startFill=0;fillColor=#d5e8d4;jumpStyle=line;jumpSize=10;entryX=0.25;entryY=0;entryDx=0;entryDy=0;dashed=1;endFill=1;exitX=0.5;exitY=1;exitDx=0;exitDy=0;" edge="1" source="2142" target="2135" parent="fxQP5-2Rpk5uUzQ9qzvW-1">
                    <mxGeometry width="50" height="50" relative="1" as="geometry">
                        <mxPoint x="-132" y="1100" as="sourcePoint"/>
                        <mxPoint x="-70" y="1100.875" as="targetPoint"/>
                        <Array as="points">
                            <mxPoint x="-143" y="1160"/>
                            <mxPoint x="20" y="1160"/>
                        </Array>
                    </mxGeometry>
                </mxCell>
                <mxCell id="2165" value="取得" style="text;strokeColor=none;align=left;fillColor=none;html=1;verticalAlign=middle;whiteSpace=wrap;rounded=0;labelBackgroundColor=none;fontSize=10;" vertex="1" parent="fxQP5-2Rpk5uUzQ9qzvW-1">
                    <mxGeometry x="-140" y="1129.13" width="30" height="30" as="geometry"/>
                </mxCell>
                <mxCell id="2166" style="edgeStyle=none;html=1;exitX=1;exitY=0.25;exitDx=0;exitDy=0;entryX=0;entryY=0.25;entryDx=0;entryDy=0;" edge="1" source="2147" target="2151" parent="fxQP5-2Rpk5uUzQ9qzvW-1">
                    <mxGeometry relative="1" as="geometry"/>
                </mxCell>
                <mxCell id="2167" style="edgeStyle=none;html=1;exitX=0;exitY=0.75;exitDx=0;exitDy=0;entryX=1;entryY=0.75;entryDx=0;entryDy=0;" edge="1" source="2151" target="2147" parent="fxQP5-2Rpk5uUzQ9qzvW-1">
                    <mxGeometry relative="1" as="geometry"/>
                </mxCell>
                <mxCell id="2168" value="" style="group" vertex="1" connectable="0" parent="fxQP5-2Rpk5uUzQ9qzvW-1">
                    <mxGeometry x="560" y="910" width="99.75" height="40" as="geometry"/>
                </mxCell>
                <mxCell id="2169" value="ChildElementsDAO&lt;br&gt;updateBeforeInsert()" style="rounded=0;whiteSpace=wrap;html=1;labelBackgroundColor=none;fillStyle=auto;strokeColor=#6F0000;fontFamily=Helvetica;fontSize=10;fontColor=#ffffff;fillColor=#a20025;container=0;" vertex="1" parent="2168">
                    <mxGeometry y="20" width="99.75000000000003" height="25" as="geometry"/>
                </mxCell>
                <mxCell id="2170" value="&lt;span style=&quot;font-size: 11px;&quot;&gt;DAO&lt;/span&gt;" style="text;strokeColor=none;align=left;fillColor=none;html=1;verticalAlign=middle;whiteSpace=wrap;rounded=0;labelBackgroundColor=none;fontSize=10;" vertex="1" parent="2168">
                    <mxGeometry x="28.9484265734266" width="41.85314685314686" height="20" as="geometry"/>
                </mxCell>
                <mxCell id="2171" value="" style="endArrow=classic;startArrow=classic;html=1;rounded=0;fontSize=10;jumpStyle=line;jumpSize=10;strokeWidth=3;exitX=1;exitY=0.5;exitDx=0;exitDy=0;entryX=0;entryY=0;entryDx=0;entryDy=27.5;entryPerimeter=0;" edge="1" source="2169" target="2154" parent="fxQP5-2Rpk5uUzQ9qzvW-1">
                    <mxGeometry width="50" height="50" relative="1" as="geometry">
                        <mxPoint x="723.9400000000005" y="943" as="sourcePoint"/>
                        <mxPoint x="750.25" y="942" as="targetPoint"/>
                    </mxGeometry>
                </mxCell>
                <mxCell id="2172" value="" style="group" vertex="1" connectable="0" parent="fxQP5-2Rpk5uUzQ9qzvW-1">
                    <mxGeometry x="540" y="860" width="206.31" height="68.25" as="geometry"/>
                </mxCell>
                <mxCell id="2173" value="&lt;font color=&quot;#000000&quot;&gt;&lt;br&gt;&lt;/font&gt;" style="shape=callout;whiteSpace=wrap;html=1;perimeter=calloutPerimeter;fontSize=11;fillColor=#dae8fc;strokeColor=#6c8ebf;base=13;position2=0.47;size=30;position=0.47;align=left;" vertex="1" parent="2172">
                    <mxGeometry y="1.664634146341463" width="195.9945" height="66.58536585365853" as="geometry"/>
                </mxCell>
                <mxCell id="2174" value="UPDATE文：挿入するChildNum以上で絞り込み後、該当するChildNumを+1" style="text;strokeColor=none;align=left;fillColor=none;html=1;verticalAlign=middle;whiteSpace=wrap;rounded=0;labelBackgroundColor=none;fontSize=10;fontColor=#000000;" vertex="1" parent="2172">
                    <mxGeometry y="0.741373801916933" width="192.55599999999998" height="44.386485623003196" as="geometry"/>
                </mxCell>
                <mxCell id="2175" style="edgeStyle=none;html=1;exitX=0.75;exitY=0;exitDx=0;exitDy=0;entryX=0;entryY=0.25;entryDx=0;entryDy=0;rounded=0;" edge="1" source="2147" target="2169" parent="fxQP5-2Rpk5uUzQ9qzvW-1">
                    <mxGeometry relative="1" as="geometry">
                        <Array as="points">
                            <mxPoint x="361" y="936"/>
                        </Array>
                    </mxGeometry>
                </mxCell>
                <mxCell id="2176" style="edgeStyle=none;rounded=0;html=1;exitX=0;exitY=0.75;exitDx=0;exitDy=0;entryX=0.829;entryY=-0.004;entryDx=0;entryDy=0;entryPerimeter=0;" edge="1" source="2169" target="2147" parent="fxQP5-2Rpk5uUzQ9qzvW-1">
                    <mxGeometry relative="1" as="geometry">
                        <Array as="points">
                            <mxPoint x="369" y="950"/>
                        </Array>
                    </mxGeometry>
                </mxCell>
                <mxCell id="2177" value="&lt;span style=&quot;font-size: 11px;&quot;&gt;処理件数&lt;/span&gt;" style="text;strokeColor=none;align=left;fillColor=none;html=1;verticalAlign=middle;whiteSpace=wrap;rounded=0;labelBackgroundColor=none;fontSize=10;" vertex="1" parent="fxQP5-2Rpk5uUzQ9qzvW-1">
                    <mxGeometry x="401.19" y="955" width="56.5" height="20" as="geometry"/>
                </mxCell>
                <mxCell id="2178" value="&lt;span style=&quot;font-size: 11px;&quot;&gt;null&lt;/span&gt;" style="text;strokeColor=none;align=left;fillColor=none;html=1;verticalAlign=middle;whiteSpace=wrap;rounded=0;labelBackgroundColor=none;fontSize=10;" vertex="1" parent="fxQP5-2Rpk5uUzQ9qzvW-1">
                    <mxGeometry x="410.52" y="910" width="38.81" height="20" as="geometry"/>
                </mxCell>
                <mxCell id="2179" value="" style="group" vertex="1" connectable="0" parent="fxQP5-2Rpk5uUzQ9qzvW-1">
                    <mxGeometry x="750.25" y="460" width="73" height="111.75" as="geometry"/>
                </mxCell>
                <mxCell id="2180" value="" style="shape=cylinder3;whiteSpace=wrap;html=1;boundedLbl=1;backgroundOutline=1;size=15;fontSize=11;fillColor=#f5f5f5;fontColor=#333333;strokeColor=#666666;" vertex="1" parent="2179">
                    <mxGeometry x="6.5" y="5" width="60" height="80" as="geometry"/>
                </mxCell>
                <mxCell id="2181" value="&lt;span style=&quot;font-size: 11px;&quot;&gt;PARENT_ELEMENTS&lt;br&gt;テーブル&lt;br&gt;&lt;/span&gt;" style="text;strokeColor=none;align=center;fillColor=none;html=1;verticalAlign=middle;whiteSpace=wrap;rounded=0;labelBackgroundColor=none;fontSize=10;" vertex="1" parent="2179">
                    <mxGeometry y="87.75" width="73" height="20" as="geometry"/>
                </mxCell>
                <mxCell id="2183" value="" style="group" vertex="1" connectable="0" parent="fxQP5-2Rpk5uUzQ9qzvW-1">
                    <mxGeometry x="748" y="338" width="73" height="111.75" as="geometry"/>
                </mxCell>
                <mxCell id="2184" value="" style="shape=cylinder3;whiteSpace=wrap;html=1;boundedLbl=1;backgroundOutline=1;size=15;fontSize=11;fillColor=#f5f5f5;fontColor=#333333;strokeColor=#666666;" vertex="1" parent="2183">
                    <mxGeometry x="6.5" y="5" width="60" height="80" as="geometry"/>
                </mxCell>
                <mxCell id="2185" value="&lt;span style=&quot;font-size: 11px;&quot;&gt;CHILD_ELEMENTS&lt;br&gt;テーブル&lt;br&gt;&lt;/span&gt;" style="text;strokeColor=none;align=center;fillColor=none;html=1;verticalAlign=middle;whiteSpace=wrap;rounded=0;labelBackgroundColor=none;fontSize=10;" vertex="1" parent="2183">
                    <mxGeometry y="87.75" width="73" height="20" as="geometry"/>
                </mxCell>
                <mxCell id="2186" value="" style="group" vertex="1" connectable="0" parent="fxQP5-2Rpk5uUzQ9qzvW-1">
                    <mxGeometry x="550" y="350" width="129.75" height="40" as="geometry"/>
                </mxCell>
                <mxCell id="2187" value="ChildElementsDAO&lt;br&gt;updateBeforeParentInsert()" style="rounded=0;whiteSpace=wrap;html=1;labelBackgroundColor=none;fillStyle=auto;strokeColor=#6F0000;fontFamily=Helvetica;fontSize=10;fontColor=#ffffff;fillColor=#a20025;container=0;" vertex="1" parent="2186">
                    <mxGeometry y="20" width="129.75000000000003" height="25" as="geometry"/>
                </mxCell>
                <mxCell id="2188" value="&lt;span style=&quot;font-size: 11px;&quot;&gt;DAO&lt;/span&gt;" style="text;strokeColor=none;align=left;fillColor=none;html=1;verticalAlign=middle;whiteSpace=wrap;rounded=0;labelBackgroundColor=none;fontSize=10;" vertex="1" parent="2186">
                    <mxGeometry x="37.654720279720316" width="54.44055944055945" height="20" as="geometry"/>
                </mxCell>
                <mxCell id="2189" style="edgeStyle=none;rounded=0;html=1;exitX=1;exitY=0.25;exitDx=0;exitDy=0;entryX=0;entryY=0.25;entryDx=0;entryDy=0;" edge="1" parent="fxQP5-2Rpk5uUzQ9qzvW-1" source="2017" target="2187">
                    <mxGeometry relative="1" as="geometry"/>
                </mxCell>
                <mxCell id="2190" style="edgeStyle=none;rounded=0;html=1;exitX=0;exitY=0.75;exitDx=0;exitDy=0;entryX=1;entryY=0.75;entryDx=0;entryDy=0;" edge="1" parent="fxQP5-2Rpk5uUzQ9qzvW-1" source="2187" target="2017">
                    <mxGeometry relative="1" as="geometry"/>
                </mxCell>
                <mxCell id="2191" value="" style="endArrow=classic;startArrow=classic;html=1;rounded=0;fontSize=10;jumpStyle=line;jumpSize=10;strokeWidth=3;exitX=1;exitY=0.5;exitDx=0;exitDy=0;entryX=0;entryY=0.5;entryDx=0;entryDy=0;entryPerimeter=0;" edge="1" parent="fxQP5-2Rpk5uUzQ9qzvW-1" source="2187" target="2184">
                    <mxGeometry width="50" height="50" relative="1" as="geometry">
                        <mxPoint x="669.75" y="272.5" as="sourcePoint"/>
                        <mxPoint x="760.25" y="272.75" as="targetPoint"/>
                    </mxGeometry>
                </mxCell>
                <mxCell id="2192" value="" style="group" vertex="1" connectable="0" parent="fxQP5-2Rpk5uUzQ9qzvW-1">
                    <mxGeometry x="550" y="300" width="170" height="68.25" as="geometry"/>
                </mxCell>
                <mxCell id="2193" value="&lt;font color=&quot;#000000&quot;&gt;&lt;br&gt;&lt;/font&gt;" style="shape=callout;whiteSpace=wrap;html=1;perimeter=calloutPerimeter;fontSize=11;fillColor=#dae8fc;strokeColor=#6c8ebf;base=13;position2=0.47;size=30;position=0.47;align=left;" vertex="1" parent="2192">
                    <mxGeometry y="-10" width="161.5" height="78.25" as="geometry"/>
                </mxCell>
                <mxCell id="2194" value="UPDATE文：挿入するParentNum以上で絞り込み後、該当するParentNumを+1" style="text;strokeColor=none;align=left;fillColor=none;html=1;verticalAlign=middle;whiteSpace=wrap;rounded=0;labelBackgroundColor=none;fontSize=10;fontColor=#000000;" vertex="1" parent="2192">
                    <mxGeometry y="-6.258626198083067" width="158.66666666666663" height="44.386485623003196" as="geometry"/>
                </mxCell>
                <mxCell id="2196" value="&lt;span style=&quot;font-size: 11px;&quot;&gt;ParentElement&lt;/span&gt;" style="text;strokeColor=none;align=left;fillColor=none;html=1;verticalAlign=middle;whiteSpace=wrap;rounded=0;labelBackgroundColor=none;fontSize=10;" vertex="1" parent="fxQP5-2Rpk5uUzQ9qzvW-1">
                    <mxGeometry x="387.03999999999996" y="228.25" width="89.92" height="20" as="geometry"/>
                </mxCell>
                <mxCell id="2197" value="&lt;span style=&quot;font-size: 11px;&quot;&gt;ParentElement&lt;/span&gt;" style="text;strokeColor=none;align=left;fillColor=none;html=1;verticalAlign=middle;whiteSpace=wrap;rounded=0;labelBackgroundColor=none;fontSize=10;" vertex="1" parent="fxQP5-2Rpk5uUzQ9qzvW-1">
                    <mxGeometry x="393.75" y="352.25" width="89.92" height="20" as="geometry"/>
                </mxCell>
                <mxCell id="2199" value="&lt;span style=&quot;font-size: 11px;&quot;&gt;処理件数&lt;/span&gt;" style="text;strokeColor=none;align=left;fillColor=none;html=1;verticalAlign=middle;whiteSpace=wrap;rounded=0;labelBackgroundColor=none;fontSize=10;" vertex="1" parent="fxQP5-2Rpk5uUzQ9qzvW-1">
                    <mxGeometry x="408.46000000000004" y="396" width="56.5" height="20" as="geometry"/>
                </mxCell>
                <mxCell id="2241" style="edgeStyle=none;shape=connector;rounded=0;html=1;exitX=0;exitY=0.75;exitDx=0;exitDy=0;shadow=1;labelBackgroundColor=default;strokeColor=#b85450;fontFamily=Helvetica;fontSize=10;fontColor=#007FFF;startArrow=none;startFill=0;endArrow=classic;entryX=0.75;entryY=1;entryDx=0;entryDy=0;fillColor=#f8cecc;" edge="1" parent="fxQP5-2Rpk5uUzQ9qzvW-1" target="2245">
                    <mxGeometry relative="1" as="geometry">
                        <mxPoint x="-710" y="1443" as="targetPoint"/>
                        <Array as="points">
                            <mxPoint x="-530" y="1753"/>
                        </Array>
                        <mxPoint x="-360" y="1753" as="sourcePoint"/>
                    </mxGeometry>
                </mxCell>
                <mxCell id="2243" value="「変更」&lt;br&gt;ボタンを&lt;br&gt;クリック" style="text;strokeColor=none;align=center;fillColor=none;html=1;verticalAlign=middle;whiteSpace=wrap;rounded=0;labelBackgroundColor=none;" vertex="1" parent="fxQP5-2Rpk5uUzQ9qzvW-1">
                    <mxGeometry x="-430" y="1763" width="66" height="40" as="geometry"/>
                </mxCell>
                <mxCell id="2244" style="edgeStyle=none;rounded=0;jumpStyle=line;jumpSize=10;html=1;exitX=0;exitY=0.5;exitDx=0;exitDy=0;entryX=0.5;entryY=1;entryDx=0;entryDy=0;strokeWidth=1;fontSize=10;startArrow=none;startFill=0;fillColor=#f8cecc;strokeColor=#b85450;" edge="1" parent="fxQP5-2Rpk5uUzQ9qzvW-1" source="2245" target="2248">
                    <mxGeometry relative="1" as="geometry">
                        <Array as="points">
                            <mxPoint x="-690" y="1590"/>
                        </Array>
                    </mxGeometry>
                </mxCell>
                <mxCell id="2245" value="&lt;font color=&quot;#ffffff&quot;&gt;RoadmapServlet&lt;/font&gt;" style="rounded=0;whiteSpace=wrap;html=1;labelBackgroundColor=none;fillStyle=auto;strokeColor=#F0F0F0;fontFamily=Helvetica;fontSize=10;fontColor=#007FFF;fillColor=#0066CC;" vertex="1" parent="fxQP5-2Rpk5uUzQ9qzvW-1">
                    <mxGeometry x="-595.5" y="1582" width="85" height="15" as="geometry"/>
                </mxCell>
                <mxCell id="2248" value="&lt;font color=&quot;#ffffff&quot;&gt;roadmap.jsp&lt;/font&gt;" style="rounded=0;whiteSpace=wrap;html=1;labelBackgroundColor=none;fillStyle=auto;strokeColor=#F0F0F0;fontFamily=Helvetica;fontSize=10;fontColor=#007FFF;fillColor=#4D9900;" vertex="1" parent="fxQP5-2Rpk5uUzQ9qzvW-1">
                    <mxGeometry x="-727" y="1475.13" width="70" height="15" as="geometry"/>
                </mxCell>
                <mxCell id="2250" value="&lt;span style=&quot;color: rgb(255, 255, 255);&quot;&gt;S：&lt;/span&gt;&lt;br style=&quot;color: rgb(255, 255, 255);&quot;&gt;&lt;span style=&quot;color: rgb(255, 255, 255);&quot;&gt;&quot;roadmapList&quot; ロードマップインスタンスのリスト&lt;br&gt;&lt;/span&gt;&lt;span style=&quot;color: rgb(255, 255, 255);&quot;&gt;&quot;currentRoadmap&quot; 表示中のロードマップID&lt;/span&gt;&lt;span style=&quot;color: rgb(255, 255, 255);&quot;&gt;&lt;br&gt;&lt;/span&gt;" style="rounded=0;whiteSpace=wrap;html=1;labelBackgroundColor=none;fillStyle=auto;strokeColor=#F0F0F0;fontFamily=Helvetica;fontSize=10;fontColor=#007FFF;fillColor=#999900;align=left;" vertex="1" parent="fxQP5-2Rpk5uUzQ9qzvW-1">
                    <mxGeometry x="-762.5" y="1763" width="230" height="38.75" as="geometry"/>
                </mxCell>
                <mxCell id="2251" value="現在表示中のロードマップIDを取得し、該当の親要素(または子要素)を変更して&lt;br&gt;スコープおよびDBに保存" style="text;strokeColor=default;align=center;fillColor=none;html=1;verticalAlign=middle;whiteSpace=wrap;rounded=0;labelBackgroundColor=none;fontSize=10;dashed=1;strokeWidth=2;perimeterSpacing=0;dashPattern=1 1;glass=1;" vertex="1" parent="fxQP5-2Rpk5uUzQ9qzvW-1">
                    <mxGeometry x="-732" y="1807.75" width="190" height="36" as="geometry"/>
                </mxCell>
                <mxCell id="2254" value="action=updateChild&lt;br&gt;currentChildNum=X&lt;br&gt;childName&lt;br&gt;belongToParentNum&lt;br&gt;childNum&lt;br&gt;childTag&lt;br&gt;status&lt;br&gt;description" style="text;strokeColor=#990000;align=center;fillColor=none;html=1;verticalAlign=middle;whiteSpace=wrap;rounded=0;labelBackgroundColor=none;fontSize=10;dashed=1;strokeWidth=2;perimeterSpacing=0;dashPattern=1 1;glass=1;" vertex="1" parent="fxQP5-2Rpk5uUzQ9qzvW-1">
                    <mxGeometry x="-520" y="1760" width="93" height="100" as="geometry"/>
                </mxCell>
                <mxCell id="2255" value="POST" style="text;strokeColor=default;align=center;fillColor=none;html=1;verticalAlign=middle;whiteSpace=wrap;rounded=0;labelBackgroundColor=none;fontSize=10;strokeWidth=2;" vertex="1" parent="fxQP5-2Rpk5uUzQ9qzvW-1">
                    <mxGeometry x="-493" y="1733" width="30" height="14" as="geometry"/>
                </mxCell>
                <mxCell id="2257" value="" style="endArrow=async;html=1;rounded=0;shadow=1;labelBackgroundColor=default;strokeColor=#82b366;fontFamily=Helvetica;fontSize=10;fontColor=#FFFFFF;shape=connector;strokeWidth=1;startArrow=none;startFill=0;fillColor=#d5e8d4;jumpStyle=line;jumpSize=10;entryX=0.5;entryY=0;entryDx=0;entryDy=0;dashed=1;endFill=1;exitX=0.25;exitY=1;exitDx=0;exitDy=0;" edge="1" parent="fxQP5-2Rpk5uUzQ9qzvW-1" source="2245" target="2250">
                    <mxGeometry width="50" height="50" relative="1" as="geometry">
                        <mxPoint x="-650" y="1723" as="sourcePoint"/>
                        <mxPoint x="-588" y="1723.875" as="targetPoint"/>
                        <Array as="points">
                            <mxPoint x="-574" y="1723"/>
                            <mxPoint x="-647" y="1723"/>
                        </Array>
                    </mxGeometry>
                </mxCell>
                <mxCell id="2258" value="" style="endArrow=async;html=1;rounded=0;shadow=1;labelBackgroundColor=default;strokeColor=#82b366;fontFamily=Helvetica;fontSize=10;fontColor=#FFFFFF;shape=connector;strokeWidth=1;startArrow=none;startFill=0;fillColor=#d5e8d4;jumpStyle=line;jumpSize=10;entryX=0.5;entryY=1;entryDx=0;entryDy=0;dashed=1;endFill=1;exitX=0.75;exitY=0;exitDx=0;exitDy=0;" edge="1" parent="fxQP5-2Rpk5uUzQ9qzvW-1" source="2250" target="2245">
                    <mxGeometry width="50" height="50" relative="1" as="geometry">
                        <mxPoint x="-650" y="1723" as="sourcePoint"/>
                        <mxPoint x="-588" y="1723.875" as="targetPoint"/>
                        <Array as="points">
                            <mxPoint x="-590" y="1743"/>
                            <mxPoint x="-550" y="1743"/>
                        </Array>
                    </mxGeometry>
                </mxCell>
                <mxCell id="2259" value="フォワード" style="text;strokeColor=default;align=center;fillColor=none;html=1;verticalAlign=middle;whiteSpace=wrap;rounded=0;labelBackgroundColor=none;fontSize=10;" vertex="1" parent="fxQP5-2Rpk5uUzQ9qzvW-1">
                    <mxGeometry x="-682.5" y="1568" width="59" height="15" as="geometry"/>
                </mxCell>
                <mxCell id="2272" style="edgeStyle=none;html=1;entryX=0;entryY=0.5;entryDx=0;entryDy=0;fontSize=10;fillColor=none;" edge="1" target="2277" parent="fxQP5-2Rpk5uUzQ9qzvW-1">
                    <mxGeometry relative="1" as="geometry">
                        <mxPoint x="-200.00000000000023" y="1532.9999999999998" as="sourcePoint"/>
                        <mxPoint x="-106" y="1540" as="targetPoint"/>
                    </mxGeometry>
                </mxCell>
                <mxCell id="2273" style="edgeStyle=none;rounded=0;html=1;exitX=0;exitY=0.5;exitDx=0;exitDy=0;fontSize=11;fontColor=#000000;" edge="1" source="2282" parent="fxQP5-2Rpk5uUzQ9qzvW-1">
                    <mxGeometry relative="1" as="geometry">
                        <mxPoint x="-200.00000000000023" y="1992" as="targetPoint"/>
                    </mxGeometry>
                </mxCell>
                <mxCell id="2274" style="edgeStyle=none;rounded=0;html=1;exitX=0.75;exitY=1;exitDx=0;exitDy=0;entryX=0.75;entryY=0;entryDx=0;entryDy=0;fontSize=11;fontColor=#000000;fillColor=none;" edge="1" source="2277" target="2282" parent="fxQP5-2Rpk5uUzQ9qzvW-1">
                    <mxGeometry relative="1" as="geometry">
                        <Array as="points"/>
                        <mxPoint x="83.25" y="1782.5" as="targetPoint"/>
                    </mxGeometry>
                </mxCell>
                <mxCell id="2275" value="フォワード" style="text;strokeColor=default;align=center;fillColor=none;html=1;verticalAlign=middle;whiteSpace=wrap;rounded=0;labelBackgroundColor=none;fontSize=10;" vertex="1" parent="fxQP5-2Rpk5uUzQ9qzvW-1">
                    <mxGeometry x="68.63" y="1555" width="59" height="15" as="geometry"/>
                </mxCell>
                <mxCell id="2276" value="" style="group" vertex="1" connectable="0" parent="fxQP5-2Rpk5uUzQ9qzvW-1">
                    <mxGeometry y="1500" width="80" height="45" as="geometry"/>
                </mxCell>
                <mxCell id="2277" value="&lt;span style=&quot;color: rgb(255, 255, 255);&quot;&gt;RoadmapServlet&lt;/span&gt;&lt;font color=&quot;#ffffff&quot;&gt;&lt;br&gt;doPost()&lt;br&gt;&lt;/font&gt;" style="rounded=0;whiteSpace=wrap;html=1;labelBackgroundColor=none;fillStyle=auto;strokeColor=#F0F0F0;fontFamily=Helvetica;fontSize=10;fontColor=#007FFF;fillColor=#0066CC;" vertex="1" parent="2276">
                    <mxGeometry y="20" width="80" height="25" as="geometry"/>
                </mxCell>
                <mxCell id="2278" value="&lt;span style=&quot;font-size: 11px;&quot;&gt;Servlet&lt;/span&gt;" style="text;strokeColor=none;align=left;fillColor=none;html=1;verticalAlign=middle;whiteSpace=wrap;rounded=0;labelBackgroundColor=none;fontSize=10;" vertex="1" parent="2276">
                    <mxGeometry x="17" width="46" height="20" as="geometry"/>
                </mxCell>
                <mxCell id="2279" value="&lt;span style=&quot;font-size: 11px;&quot;&gt;保存&lt;br&gt;(roadmapList)&lt;br&gt;&lt;/span&gt;" style="text;strokeColor=none;align=left;fillColor=none;html=1;verticalAlign=middle;whiteSpace=wrap;rounded=0;labelBackgroundColor=none;fontSize=10;" vertex="1" parent="fxQP5-2Rpk5uUzQ9qzvW-1">
                    <mxGeometry x="-59" y="1695" width="80" height="30" as="geometry"/>
                </mxCell>
                <mxCell id="2280" value="" style="endArrow=async;html=1;rounded=0;shadow=1;labelBackgroundColor=default;strokeColor=#82b366;fontFamily=Helvetica;fontSize=10;fontColor=#FFFFFF;shape=connector;strokeWidth=1;startArrow=none;startFill=0;fillColor=#d5e8d4;jumpStyle=line;jumpSize=10;entryX=0.75;entryY=1;entryDx=0;entryDy=0;dashed=1;endFill=1;" edge="1" target="2289" parent="fxQP5-2Rpk5uUzQ9qzvW-1">
                    <mxGeometry width="50" height="50" relative="1" as="geometry">
                        <mxPoint x="59.99999999999977" y="1690" as="sourcePoint"/>
                        <mxPoint x="131.75" y="1670.875" as="targetPoint"/>
                        <Array as="points">
                            <mxPoint x="-85" y="1690"/>
                        </Array>
                    </mxGeometry>
                </mxCell>
                <mxCell id="2281" value="" style="group" vertex="1" connectable="0" parent="fxQP5-2Rpk5uUzQ9qzvW-1">
                    <mxGeometry x="40" y="1964.5" width="80" height="35" as="geometry"/>
                </mxCell>
                <mxCell id="2282" value="&lt;span style=&quot;color: rgb(255, 255, 255);&quot;&gt;roadmap.jsp&lt;/span&gt;" style="rounded=0;whiteSpace=wrap;html=1;labelBackgroundColor=none;fillStyle=auto;strokeColor=#F0F0F0;fontFamily=Helvetica;fontSize=10;fontColor=#007FFF;fillColor=#4D9900;" vertex="1" parent="2281">
                    <mxGeometry x="-40" y="20" width="80" height="15" as="geometry"/>
                </mxCell>
                <mxCell id="2283" value="&lt;span style=&quot;font-size: 11px;&quot;&gt;JSP&lt;/span&gt;" style="text;strokeColor=none;align=left;fillColor=none;html=1;verticalAlign=middle;whiteSpace=wrap;rounded=0;labelBackgroundColor=none;fontSize=10;" vertex="1" parent="2281">
                    <mxGeometry x="-15" width="30" height="20" as="geometry"/>
                </mxCell>
                <mxCell id="2284" value="" style="group" vertex="1" connectable="0" parent="fxQP5-2Rpk5uUzQ9qzvW-1">
                    <mxGeometry x="68" y="1575" width="200" height="172.27999999999997" as="geometry"/>
                </mxCell>
                <mxCell id="2285" value="&lt;font color=&quot;#000000&quot;&gt;&lt;br&gt;&lt;/font&gt;" style="shape=callout;whiteSpace=wrap;html=1;perimeter=calloutPerimeter;fontSize=11;fillColor=#dae8fc;strokeColor=#6c8ebf;base=19;position2=0.47;size=30;position=0.47;align=left;rotation=90;" vertex="1" parent="2284">
                    <mxGeometry x="29.23" y="-31.39" width="138.26" height="203.67" as="geometry"/>
                </mxCell>
                <mxCell id="2286" value="親要素変更ボタン仕込み時に各々付随するcurrentParentNum、スコープ中のcurrentRoadmap, roadmapListをもとに現在のParentElements中の変更対象要素を取得&lt;br&gt;入力値および必要事項をセット&lt;br&gt;また、セット後のParentElementを、BOへの引数用に新規作成したParentElementにセット、parentNum変更時はisUpdate=trueとしてフラグを立てる" style="text;strokeColor=none;align=left;fillColor=none;html=1;verticalAlign=middle;whiteSpace=wrap;rounded=0;labelBackgroundColor=none;fontSize=10;fontColor=#000000;" vertex="1" parent="2284">
                    <mxGeometry x="30.32" y="5" width="167.68" height="130" as="geometry"/>
                </mxCell>
                <mxCell id="2287" value="action=updateParent&lt;br&gt;currentParentNum=X&lt;br&gt;parentName&lt;br&gt;parentNum&lt;br&gt;status&lt;br&gt;description" style="text;strokeColor=#990000;align=center;fillColor=none;html=1;verticalAlign=middle;whiteSpace=wrap;rounded=0;labelBackgroundColor=none;fontSize=10;dashed=1;strokeWidth=2;perimeterSpacing=0;dashPattern=1 1;glass=1;" vertex="1" parent="fxQP5-2Rpk5uUzQ9qzvW-1">
                    <mxGeometry x="-191" y="1537.63" width="100" height="72.37" as="geometry"/>
                </mxCell>
                <mxCell id="2288" value="POST" style="text;strokeColor=default;align=center;fillColor=none;html=1;verticalAlign=middle;whiteSpace=wrap;rounded=0;labelBackgroundColor=none;fontSize=10;" vertex="1" parent="fxQP5-2Rpk5uUzQ9qzvW-1">
                    <mxGeometry x="-160" y="1513.5" width="30" height="15" as="geometry"/>
                </mxCell>
                <mxCell id="2289" value="&lt;font color=&quot;#ffffff&quot;&gt;S：&lt;br&gt;&lt;/font&gt;&lt;span style=&quot;color: rgb(255, 255, 255);&quot;&gt;&quot;currentRoadmap&quot; 表示中のロードマップID&lt;/span&gt;&lt;span style=&quot;color: rgb(255, 255, 255);&quot;&gt;&lt;br&gt;&lt;/span&gt;&lt;span style=&quot;color: rgb(255, 255, 255);&quot;&gt;&quot;roadmapList&quot; ロードマップインスタンスのリスト&lt;/span&gt;&lt;span style=&quot;color: rgb(255, 255, 255);&quot;&gt;&lt;br&gt;&lt;/span&gt;" style="rounded=0;whiteSpace=wrap;html=1;labelBackgroundColor=none;fillStyle=auto;strokeColor=#F0F0F0;fontFamily=Helvetica;fontSize=10;fontColor=#007FFF;fillColor=#999900;align=left;" vertex="1" parent="fxQP5-2Rpk5uUzQ9qzvW-1">
                    <mxGeometry x="-260" y="1635" width="233.5" height="35" as="geometry"/>
                </mxCell>
                <mxCell id="2290" value="" style="endArrow=async;html=1;rounded=0;shadow=1;labelBackgroundColor=default;strokeColor=#82b366;fontFamily=Helvetica;fontSize=10;fontColor=#FFFFFF;shape=connector;strokeWidth=1;startArrow=none;startFill=0;fillColor=#d5e8d4;jumpStyle=line;jumpSize=10;entryX=0.5;entryY=1;entryDx=0;entryDy=0;dashed=1;endFill=1;exitX=1;exitY=0.5;exitDx=0;exitDy=0;" edge="1" source="2289" target="2277" parent="fxQP5-2Rpk5uUzQ9qzvW-1">
                    <mxGeometry width="50" height="50" relative="1" as="geometry">
                        <mxPoint x="110" y="1580" as="sourcePoint"/>
                        <mxPoint x="172" y="1580.875" as="targetPoint"/>
                        <Array as="points">
                            <mxPoint x="40" y="1653"/>
                        </Array>
                    </mxGeometry>
                </mxCell>
                <mxCell id="2291" value="取得" style="text;strokeColor=none;align=left;fillColor=none;html=1;verticalAlign=middle;whiteSpace=wrap;rounded=0;labelBackgroundColor=none;fontSize=10;" vertex="1" parent="fxQP5-2Rpk5uUzQ9qzvW-1">
                    <mxGeometry x="5" y="1620" width="30" height="30" as="geometry"/>
                </mxCell>
                <mxCell id="2292" value="" style="group" vertex="1" connectable="0" parent="fxQP5-2Rpk5uUzQ9qzvW-1">
                    <mxGeometry x="280" y="1710" width="107.93" height="40" as="geometry"/>
                </mxCell>
                <mxCell id="2293" value="&lt;span style=&quot;font-size: 11px;&quot;&gt;BO&lt;/span&gt;" style="text;strokeColor=none;align=left;fillColor=none;html=1;verticalAlign=middle;whiteSpace=wrap;rounded=0;labelBackgroundColor=none;fontSize=10;" vertex="1" parent="2292">
                    <mxGeometry x="34.66476310399712" width="38.6082606071787" height="20" as="geometry"/>
                </mxCell>
                <mxCell id="2294" value="&lt;span style=&quot;text-align: start;&quot;&gt;&lt;font face=&quot;monospace&quot; color=&quot;rgba(0, 0, 0, 0)&quot;&gt;&lt;span style=&quot;font-size: 0px;&quot;&gt;%3CmxGraphModel%3E%3Croot%3E%3CmxCell%20id%3D%220%22%2F%3E%3CmxCell%20id%3D%221%22%20parent%3D%220%22%2F%3E%3CmxCell%20id%3D%222%22%20value%3D%22%26lt%3Bfont%20color%3D%26quot%3B%23ffffff%26quot%3B%26gt%3BS%EF%BC%9A%26lt%3Bbr%26gt%3B%26lt%3B%2Ffont%26gt%3B%26lt%3Bspan%20style%3D%26quot%3Bcolor%3A%20rgb(255%2C%20255%2C%20255)%3B%26quot%3B%26gt%3B%26quot%3BuserId%26quot%3B%20%E3%83%A6%E3%83%BC%E3%82%B6%E3%83%BCID%26lt%3Bbr%26gt%3B%26lt%3B%2Fspan%26gt%3B%22%20style%3D%22rounded%3D0%3BwhiteSpace%3Dwrap%3Bhtml%3D1%3BlabelBackgroundColor%3Dnone%3BfillStyle%3Dauto%3BstrokeColor%3D%23F0F0F0%3BfontFamily%3DHelvetica%3BfontSize%3D10%3BfontColor%3D%23007FFF%3BfillColor%3D%23999900%3Balign%3Dleft%3B%22%20vertex%3D%221%22%20parent%3D%221%22%3E%3CmxGeometry%20x%3D%22116.5%22%20y%3D%222320%22%20width%3D%22103.5%22%20height%3D%2230%22%20as%3D%22geometry%22%2F%3E%3C%2FmxCell%3E%3C%2Froot%3E%3C%2FmxGraphModel%3Edaaaaaa&lt;/span&gt;&lt;/font&gt;&lt;/span&gt;&lt;span style=&quot;background-color: initial;&quot;&gt;RoadmapLogic&lt;/span&gt;&lt;span style=&quot;text-align: start;&quot;&gt;&lt;font face=&quot;monospace&quot; color=&quot;rgba(0, 0, 0, 0)&quot;&gt;&lt;span style=&quot;font-size: 0px;&quot;&gt;&lt;br&gt;&lt;/span&gt;&lt;/font&gt;&lt;/span&gt;&lt;font color=&quot;#ffffff&quot;&gt;updateParentElement()&lt;br&gt;&lt;/font&gt;" style="rounded=0;whiteSpace=wrap;html=1;labelBackgroundColor=none;fillStyle=auto;strokeColor=#3700CC;fontFamily=Helvetica;fontSize=10;fontColor=#ffffff;fillColor=#6a00ff;container=0;" vertex="1" parent="2292">
                    <mxGeometry y="20" width="107.92999999999999" height="25" as="geometry"/>
                </mxCell>
                <mxCell id="2295" style="edgeStyle=none;html=1;exitX=0;exitY=0.75;exitDx=0;exitDy=0;" edge="1" source="2294" parent="fxQP5-2Rpk5uUzQ9qzvW-1">
                    <mxGeometry relative="1" as="geometry">
                        <mxPoint x="59.99999999999977" y="1749" as="targetPoint"/>
                    </mxGeometry>
                </mxCell>
                <mxCell id="2296" style="edgeStyle=none;html=1;entryX=0;entryY=0.25;entryDx=0;entryDy=0;" edge="1" target="2294" parent="fxQP5-2Rpk5uUzQ9qzvW-1">
                    <mxGeometry relative="1" as="geometry">
                        <mxPoint x="70" y="1759" as="targetPoint"/>
                        <mxPoint x="59.99999999999977" y="1736" as="sourcePoint"/>
                    </mxGeometry>
                </mxCell>
                <mxCell id="2297" value="" style="group" vertex="1" connectable="0" parent="fxQP5-2Rpk5uUzQ9qzvW-1">
                    <mxGeometry x="563.49" y="1832" width="99.75" height="40" as="geometry"/>
                </mxCell>
                <mxCell id="2298" value="ParentElementsDAO&lt;br&gt;insert()" style="rounded=0;whiteSpace=wrap;html=1;labelBackgroundColor=none;fillStyle=auto;strokeColor=#6F0000;fontFamily=Helvetica;fontSize=10;fontColor=#ffffff;fillColor=#a20025;container=0;" vertex="1" parent="2297">
                    <mxGeometry y="20" width="99.75000000000003" height="25" as="geometry"/>
                </mxCell>
                <mxCell id="2299" value="&lt;span style=&quot;font-size: 11px;&quot;&gt;DAO&lt;/span&gt;" style="text;strokeColor=none;align=left;fillColor=none;html=1;verticalAlign=middle;whiteSpace=wrap;rounded=0;labelBackgroundColor=none;fontSize=10;" vertex="1" parent="2297">
                    <mxGeometry x="28.9484265734266" width="41.85314685314686" height="20" as="geometry"/>
                </mxCell>
                <mxCell id="2300" value="" style="group" vertex="1" connectable="0" parent="fxQP5-2Rpk5uUzQ9qzvW-1">
                    <mxGeometry x="743.75" y="1590.25" width="73" height="111.75" as="geometry"/>
                </mxCell>
                <mxCell id="2301" value="" style="shape=cylinder3;whiteSpace=wrap;html=1;boundedLbl=1;backgroundOutline=1;size=15;fontSize=11;fillColor=#f5f5f5;fontColor=#333333;strokeColor=#666666;" vertex="1" parent="2300">
                    <mxGeometry x="6.5" y="5" width="60" height="80" as="geometry"/>
                </mxCell>
                <mxCell id="2302" value="&lt;span style=&quot;font-size: 11px;&quot;&gt;PARENT_ELEMENTS&lt;br&gt;テーブル&lt;br&gt;&lt;/span&gt;" style="text;strokeColor=none;align=center;fillColor=none;html=1;verticalAlign=middle;whiteSpace=wrap;rounded=0;labelBackgroundColor=none;fontSize=10;" vertex="1" parent="2300">
                    <mxGeometry y="87.75" width="73" height="20" as="geometry"/>
                </mxCell>
                <mxCell id="2303" value="" style="endArrow=classic;startArrow=classic;html=1;rounded=0;fontSize=10;jumpStyle=line;jumpSize=10;strokeWidth=3;exitX=1;exitY=0.5;exitDx=0;exitDy=0;entryX=0;entryY=0.5;entryDx=0;entryDy=0;entryPerimeter=0;" edge="1" source="2298" target="2326" parent="fxQP5-2Rpk5uUzQ9qzvW-1">
                    <mxGeometry width="50" height="50" relative="1" as="geometry">
                        <mxPoint x="723.9400000000005" y="1743" as="sourcePoint"/>
                        <mxPoint x="760.25" y="1780" as="targetPoint"/>
                    </mxGeometry>
                </mxCell>
                <mxCell id="2304" value="&lt;span style=&quot;font-size: 11px;&quot;&gt;ParentElement, isUpdate&lt;/span&gt;" style="text;strokeColor=none;align=left;fillColor=none;html=1;verticalAlign=middle;whiteSpace=wrap;rounded=0;labelBackgroundColor=none;fontSize=10;" vertex="1" parent="fxQP5-2Rpk5uUzQ9qzvW-1">
                    <mxGeometry x="110" y="1714" width="150" height="20" as="geometry"/>
                </mxCell>
                <mxCell id="2305" value="&lt;span style=&quot;font-size: 11px;&quot;&gt;処理完了：true&lt;br&gt;処理未完了：false&lt;br&gt;&lt;/span&gt;" style="text;strokeColor=none;align=left;fillColor=none;html=1;verticalAlign=middle;whiteSpace=wrap;rounded=0;labelBackgroundColor=none;fontSize=10;" vertex="1" parent="fxQP5-2Rpk5uUzQ9qzvW-1">
                    <mxGeometry x="130" y="1760" width="96.5" height="20" as="geometry"/>
                </mxCell>
                <mxCell id="2306" value="&lt;span style=&quot;font-size: 11px;&quot;&gt;ParentElement&lt;/span&gt;" style="text;strokeColor=none;align=left;fillColor=none;html=1;verticalAlign=middle;whiteSpace=wrap;rounded=0;labelBackgroundColor=none;fontSize=10;" vertex="1" parent="fxQP5-2Rpk5uUzQ9qzvW-1">
                    <mxGeometry x="393.96" y="1834" width="89.92" height="20" as="geometry"/>
                </mxCell>
                <mxCell id="2307" value="" style="group" vertex="1" connectable="0" parent="fxQP5-2Rpk5uUzQ9qzvW-1">
                    <mxGeometry x="550" y="1787" width="180" height="68.25" as="geometry"/>
                </mxCell>
                <mxCell id="2308" value="&lt;font color=&quot;#000000&quot;&gt;&lt;br&gt;&lt;/font&gt;" style="shape=callout;whiteSpace=wrap;html=1;perimeter=calloutPerimeter;fontSize=11;fillColor=#dae8fc;strokeColor=#6c8ebf;base=13;position2=0.47;size=30;position=0.47;align=left;" vertex="1" parent="2307">
                    <mxGeometry y="1.664634146341463" width="170.99999999999997" height="66.58536585365853" as="geometry"/>
                </mxCell>
                <mxCell id="2309" value="INSERT文：引数のParentElementをParentNumの位置に挿入" style="text;strokeColor=none;align=left;fillColor=none;html=1;verticalAlign=middle;whiteSpace=wrap;rounded=0;labelBackgroundColor=none;fontSize=10;fontColor=#000000;" vertex="1" parent="2307">
                    <mxGeometry y="0.741373801916933" width="167.99999999999997" height="44.386485623003196" as="geometry"/>
                </mxCell>
                <mxCell id="2310" value="&lt;span style=&quot;font-size: 11px;&quot;&gt;処理件数&lt;/span&gt;" style="text;strokeColor=none;align=left;fillColor=none;html=1;verticalAlign=middle;whiteSpace=wrap;rounded=0;labelBackgroundColor=none;fontSize=10;" vertex="1" parent="fxQP5-2Rpk5uUzQ9qzvW-1">
                    <mxGeometry x="405.86" y="1875.5" width="56.5" height="20" as="geometry"/>
                </mxCell>
                <mxCell id="2311" value="" style="endArrow=async;html=1;rounded=0;shadow=1;labelBackgroundColor=default;strokeColor=#82b366;fontFamily=Helvetica;fontSize=10;fontColor=#FFFFFF;shape=connector;strokeWidth=1;startArrow=none;startFill=0;fillColor=#d5e8d4;jumpStyle=line;jumpSize=10;entryX=0.25;entryY=0;entryDx=0;entryDy=0;dashed=1;endFill=1;exitX=0.5;exitY=1;exitDx=0;exitDy=0;" edge="1" source="2289" target="2282" parent="fxQP5-2Rpk5uUzQ9qzvW-1">
                    <mxGeometry width="50" height="50" relative="1" as="geometry">
                        <mxPoint x="-132" y="1780" as="sourcePoint"/>
                        <mxPoint x="-70" y="1780.875" as="targetPoint"/>
                        <Array as="points">
                            <mxPoint x="-143" y="1840"/>
                            <mxPoint x="20" y="1840"/>
                        </Array>
                    </mxGeometry>
                </mxCell>
                <mxCell id="2312" value="取得" style="text;strokeColor=none;align=left;fillColor=none;html=1;verticalAlign=middle;whiteSpace=wrap;rounded=0;labelBackgroundColor=none;fontSize=10;" vertex="1" parent="fxQP5-2Rpk5uUzQ9qzvW-1">
                    <mxGeometry x="-140" y="1809.13" width="30" height="30" as="geometry"/>
                </mxCell>
                <mxCell id="2313" style="edgeStyle=none;html=1;exitX=0.878;exitY=1.048;exitDx=0;exitDy=0;entryX=0;entryY=0.25;entryDx=0;entryDy=0;exitPerimeter=0;rounded=0;" edge="1" source="2294" target="2298" parent="fxQP5-2Rpk5uUzQ9qzvW-1">
                    <mxGeometry relative="1" as="geometry">
                        <Array as="points">
                            <mxPoint x="375" y="1858"/>
                        </Array>
                    </mxGeometry>
                </mxCell>
                <mxCell id="2314" style="edgeStyle=none;html=1;exitX=0;exitY=0.75;exitDx=0;exitDy=0;entryX=0.75;entryY=1;entryDx=0;entryDy=0;rounded=0;" edge="1" source="2298" target="2294" parent="fxQP5-2Rpk5uUzQ9qzvW-1">
                    <mxGeometry relative="1" as="geometry">
                        <Array as="points">
                            <mxPoint x="360" y="1870"/>
                        </Array>
                    </mxGeometry>
                </mxCell>
                <mxCell id="2315" value="" style="group" vertex="1" connectable="0" parent="fxQP5-2Rpk5uUzQ9qzvW-1">
                    <mxGeometry x="560" y="1590" width="99.75" height="40" as="geometry"/>
                </mxCell>
                <mxCell id="2316" value="ParentElementsDAO&lt;br&gt;updateBeforeInsert()" style="rounded=0;whiteSpace=wrap;html=1;labelBackgroundColor=none;fillStyle=auto;strokeColor=#6F0000;fontFamily=Helvetica;fontSize=10;fontColor=#ffffff;fillColor=#a20025;container=0;" vertex="1" parent="2315">
                    <mxGeometry y="20" width="99.75000000000003" height="25" as="geometry"/>
                </mxCell>
                <mxCell id="2317" value="&lt;span style=&quot;font-size: 11px;&quot;&gt;DAO&lt;/span&gt;" style="text;strokeColor=none;align=left;fillColor=none;html=1;verticalAlign=middle;whiteSpace=wrap;rounded=0;labelBackgroundColor=none;fontSize=10;" vertex="1" parent="2315">
                    <mxGeometry x="28.9484265734266" width="41.85314685314686" height="20" as="geometry"/>
                </mxCell>
                <mxCell id="2318" value="" style="endArrow=classic;startArrow=classic;html=1;rounded=0;fontSize=10;jumpStyle=line;jumpSize=10;strokeWidth=3;exitX=1;exitY=0.5;exitDx=0;exitDy=0;entryX=0;entryY=0;entryDx=0;entryDy=27.5;entryPerimeter=0;" edge="1" source="2316" target="2301" parent="fxQP5-2Rpk5uUzQ9qzvW-1">
                    <mxGeometry width="50" height="50" relative="1" as="geometry">
                        <mxPoint x="723.9400000000005" y="1623" as="sourcePoint"/>
                        <mxPoint x="750.25" y="1622" as="targetPoint"/>
                    </mxGeometry>
                </mxCell>
                <mxCell id="2319" value="" style="group" vertex="1" connectable="0" parent="fxQP5-2Rpk5uUzQ9qzvW-1">
                    <mxGeometry x="540" y="1540" width="206.31" height="68.25" as="geometry"/>
                </mxCell>
                <mxCell id="2320" value="&lt;font color=&quot;#000000&quot;&gt;&lt;br&gt;&lt;/font&gt;" style="shape=callout;whiteSpace=wrap;html=1;perimeter=calloutPerimeter;fontSize=11;fillColor=#dae8fc;strokeColor=#6c8ebf;base=13;position2=0.47;size=30;position=0.47;align=left;" vertex="1" parent="2319">
                    <mxGeometry y="1.664634146341463" width="195.9945" height="66.58536585365853" as="geometry"/>
                </mxCell>
                <mxCell id="2321" value="UPDATE文：挿入するParentNum以上で絞り込み後、該当するParentNumを+1" style="text;strokeColor=none;align=left;fillColor=none;html=1;verticalAlign=middle;whiteSpace=wrap;rounded=0;labelBackgroundColor=none;fontSize=10;fontColor=#000000;" vertex="1" parent="2319">
                    <mxGeometry y="0.741373801916933" width="192.55599999999998" height="44.386485623003196" as="geometry"/>
                </mxCell>
                <mxCell id="2322" style="edgeStyle=none;html=1;exitX=0.75;exitY=0;exitDx=0;exitDy=0;entryX=0;entryY=0.25;entryDx=0;entryDy=0;rounded=0;" edge="1" source="2294" target="2316" parent="fxQP5-2Rpk5uUzQ9qzvW-1">
                    <mxGeometry relative="1" as="geometry">
                        <Array as="points">
                            <mxPoint x="361" y="1616"/>
                        </Array>
                    </mxGeometry>
                </mxCell>
                <mxCell id="2323" style="edgeStyle=none;rounded=0;html=1;exitX=0;exitY=0.75;exitDx=0;exitDy=0;entryX=0.829;entryY=-0.004;entryDx=0;entryDy=0;entryPerimeter=0;" edge="1" source="2316" target="2294" parent="fxQP5-2Rpk5uUzQ9qzvW-1">
                    <mxGeometry relative="1" as="geometry">
                        <Array as="points">
                            <mxPoint x="369" y="1630"/>
                        </Array>
                    </mxGeometry>
                </mxCell>
                <mxCell id="2324" value="&lt;span style=&quot;font-size: 11px;&quot;&gt;処理件数&lt;/span&gt;" style="text;strokeColor=none;align=left;fillColor=none;html=1;verticalAlign=middle;whiteSpace=wrap;rounded=0;labelBackgroundColor=none;fontSize=10;" vertex="1" parent="fxQP5-2Rpk5uUzQ9qzvW-1">
                    <mxGeometry x="401.19" y="1635" width="56.5" height="20" as="geometry"/>
                </mxCell>
                <mxCell id="2325" value="" style="group" vertex="1" connectable="0" parent="fxQP5-2Rpk5uUzQ9qzvW-1">
                    <mxGeometry x="750.25" y="1820" width="73" height="111.75" as="geometry"/>
                </mxCell>
                <mxCell id="2326" value="" style="shape=cylinder3;whiteSpace=wrap;html=1;boundedLbl=1;backgroundOutline=1;size=15;fontSize=11;fillColor=#f5f5f5;fontColor=#333333;strokeColor=#666666;" vertex="1" parent="2325">
                    <mxGeometry x="6.5" y="5" width="60" height="80" as="geometry"/>
                </mxCell>
                <mxCell id="2327" value="&lt;span style=&quot;font-size: 11px;&quot;&gt;PARENT_ELEMENTS&lt;br&gt;テーブル&lt;br&gt;&lt;/span&gt;" style="text;strokeColor=none;align=center;fillColor=none;html=1;verticalAlign=middle;whiteSpace=wrap;rounded=0;labelBackgroundColor=none;fontSize=10;" vertex="1" parent="2325">
                    <mxGeometry y="87.75" width="73" height="20" as="geometry"/>
                </mxCell>
                <mxCell id="2328" value="" style="group" vertex="1" connectable="0" parent="fxQP5-2Rpk5uUzQ9qzvW-1">
                    <mxGeometry x="748" y="1698" width="73" height="111.75" as="geometry"/>
                </mxCell>
                <mxCell id="2329" value="" style="shape=cylinder3;whiteSpace=wrap;html=1;boundedLbl=1;backgroundOutline=1;size=15;fontSize=11;fillColor=#f5f5f5;fontColor=#333333;strokeColor=#666666;" vertex="1" parent="2328">
                    <mxGeometry x="6.5" y="5" width="60" height="80" as="geometry"/>
                </mxCell>
                <mxCell id="2330" value="&lt;span style=&quot;font-size: 11px;&quot;&gt;CHILD_ELEMENTS&lt;br&gt;テーブル&lt;br&gt;&lt;/span&gt;" style="text;strokeColor=none;align=center;fillColor=none;html=1;verticalAlign=middle;whiteSpace=wrap;rounded=0;labelBackgroundColor=none;fontSize=10;" vertex="1" parent="2328">
                    <mxGeometry y="87.75" width="73" height="20" as="geometry"/>
                </mxCell>
                <mxCell id="2331" value="" style="group" vertex="1" connectable="0" parent="fxQP5-2Rpk5uUzQ9qzvW-1">
                    <mxGeometry x="550" y="1710" width="129.75" height="40" as="geometry"/>
                </mxCell>
                <mxCell id="2332" value="ChildElementsDAO&lt;br&gt;updateBeforeParentInsert()" style="rounded=0;whiteSpace=wrap;html=1;labelBackgroundColor=none;fillStyle=auto;strokeColor=#6F0000;fontFamily=Helvetica;fontSize=10;fontColor=#ffffff;fillColor=#a20025;container=0;" vertex="1" parent="2331">
                    <mxGeometry y="20" width="129.75000000000003" height="25" as="geometry"/>
                </mxCell>
                <mxCell id="2333" value="&lt;span style=&quot;font-size: 11px;&quot;&gt;DAO&lt;/span&gt;" style="text;strokeColor=none;align=left;fillColor=none;html=1;verticalAlign=middle;whiteSpace=wrap;rounded=0;labelBackgroundColor=none;fontSize=10;" vertex="1" parent="2331">
                    <mxGeometry x="37.654720279720316" width="54.44055944055945" height="20" as="geometry"/>
                </mxCell>
                <mxCell id="2334" style="edgeStyle=none;rounded=0;html=1;exitX=1;exitY=0.25;exitDx=0;exitDy=0;entryX=0;entryY=0.25;entryDx=0;entryDy=0;" edge="1" source="2294" target="2332" parent="fxQP5-2Rpk5uUzQ9qzvW-1">
                    <mxGeometry relative="1" as="geometry"/>
                </mxCell>
                <mxCell id="2335" style="edgeStyle=none;rounded=0;html=1;exitX=0;exitY=0.75;exitDx=0;exitDy=0;entryX=1;entryY=0.75;entryDx=0;entryDy=0;" edge="1" source="2332" target="2294" parent="fxQP5-2Rpk5uUzQ9qzvW-1">
                    <mxGeometry relative="1" as="geometry"/>
                </mxCell>
                <mxCell id="2336" value="" style="endArrow=classic;startArrow=classic;html=1;rounded=0;fontSize=10;jumpStyle=line;jumpSize=10;strokeWidth=3;exitX=1;exitY=0.5;exitDx=0;exitDy=0;entryX=0;entryY=0.5;entryDx=0;entryDy=0;entryPerimeter=0;" edge="1" source="2332" target="2329" parent="fxQP5-2Rpk5uUzQ9qzvW-1">
                    <mxGeometry width="50" height="50" relative="1" as="geometry">
                        <mxPoint x="669.75" y="1632.5" as="sourcePoint"/>
                        <mxPoint x="760.25" y="1632.75" as="targetPoint"/>
                    </mxGeometry>
                </mxCell>
                <mxCell id="2337" value="" style="group" vertex="1" connectable="0" parent="fxQP5-2Rpk5uUzQ9qzvW-1">
                    <mxGeometry x="550" y="1660" width="170" height="68.25" as="geometry"/>
                </mxCell>
                <mxCell id="2338" value="&lt;font color=&quot;#000000&quot;&gt;&lt;br&gt;&lt;/font&gt;" style="shape=callout;whiteSpace=wrap;html=1;perimeter=calloutPerimeter;fontSize=11;fillColor=#dae8fc;strokeColor=#6c8ebf;base=13;position2=0.47;size=30;position=0.47;align=left;" vertex="1" parent="2337">
                    <mxGeometry y="-10" width="161.5" height="78.25" as="geometry"/>
                </mxCell>
                <mxCell id="2339" value="UPDATE文：挿入するParentNum以上で絞り込み後、該当するParentNumを+1" style="text;strokeColor=none;align=left;fillColor=none;html=1;verticalAlign=middle;whiteSpace=wrap;rounded=0;labelBackgroundColor=none;fontSize=10;fontColor=#000000;" vertex="1" parent="2337">
                    <mxGeometry y="-6.258626198083067" width="158.66666666666663" height="44.386485623003196" as="geometry"/>
                </mxCell>
                <mxCell id="2340" value="&lt;span style=&quot;font-size: 11px;&quot;&gt;ParentElement&lt;/span&gt;" style="text;strokeColor=none;align=left;fillColor=none;html=1;verticalAlign=middle;whiteSpace=wrap;rounded=0;labelBackgroundColor=none;fontSize=10;" vertex="1" parent="fxQP5-2Rpk5uUzQ9qzvW-1">
                    <mxGeometry x="387.03999999999996" y="1588.25" width="89.92" height="20" as="geometry"/>
                </mxCell>
                <mxCell id="2341" value="&lt;span style=&quot;font-size: 11px;&quot;&gt;ParentElement&lt;/span&gt;" style="text;strokeColor=none;align=left;fillColor=none;html=1;verticalAlign=middle;whiteSpace=wrap;rounded=0;labelBackgroundColor=none;fontSize=10;" vertex="1" parent="fxQP5-2Rpk5uUzQ9qzvW-1">
                    <mxGeometry x="393.75" y="1712.25" width="89.92" height="20" as="geometry"/>
                </mxCell>
                <mxCell id="2342" value="&lt;span style=&quot;font-size: 11px;&quot;&gt;処理件数&lt;/span&gt;" style="text;strokeColor=none;align=left;fillColor=none;html=1;verticalAlign=middle;whiteSpace=wrap;rounded=0;labelBackgroundColor=none;fontSize=10;" vertex="1" parent="fxQP5-2Rpk5uUzQ9qzvW-1">
                    <mxGeometry x="408.46000000000004" y="1756" width="56.5" height="20" as="geometry"/>
                </mxCell>
                <mxCell id="2356" value="&lt;span style=&quot;font-size: 11px;&quot;&gt;ここから右側からできていない&lt;/span&gt;" style="text;strokeColor=#A50040;align=left;fillColor=#d80073;html=1;verticalAlign=middle;whiteSpace=wrap;rounded=0;labelBackgroundColor=none;fontSize=10;fontColor=#ffffff;" vertex="1" parent="fxQP5-2Rpk5uUzQ9qzvW-1">
                    <mxGeometry x="163.5" y="1769.75" width="116.5" height="40" as="geometry"/>
                </mxCell>
            </root>
        </mxGraphModel>
    </diagram>
</mxfile>